<mxfile host="Electron" agent="Mozilla/5.0 (Windows NT 10.0; Win64; x64) AppleWebKit/537.36 (KHTML, like Gecko) draw.io/26.0.9 Chrome/128.0.6613.186 Electron/32.2.5 Safari/537.36" version="26.0.9">
  <diagram id="R2lEEEUBdFMjLlhIrx00" name="Page-1">
    <mxGraphModel dx="5842" dy="1688" grid="1" gridSize="10" guides="1" tooltips="1" connect="1" arrows="1" fold="1" page="1" pageScale="1" pageWidth="850" pageHeight="1100" math="0" shadow="0" extFonts="Permanent Marker^https://fonts.googleapis.com/css?family=Permanent+Marker">
      <root>
        <mxCell id="0" />
        <mxCell id="1" parent="0" />
        <mxCell id="NoP4yANCG9PIDfPH0jD4-156" value="" style="shape=table;startSize=0;container=1;collapsible=0;childLayout=tableLayout;" parent="1" vertex="1">
          <mxGeometry x="-1920" y="280" width="580" height="110" as="geometry" />
        </mxCell>
        <mxCell id="NoP4yANCG9PIDfPH0jD4-157" value="" style="shape=tableRow;horizontal=0;startSize=0;swimlaneHead=0;swimlaneBody=0;strokeColor=inherit;top=0;left=0;bottom=0;right=0;collapsible=0;dropTarget=0;fillColor=none;points=[[0,0.5],[1,0.5]];portConstraint=eastwest;" parent="NoP4yANCG9PIDfPH0jD4-156" vertex="1">
          <mxGeometry width="580" height="30" as="geometry" />
        </mxCell>
        <mxCell id="NoP4yANCG9PIDfPH0jD4-158" value="PerformanceID" style="shape=partialRectangle;html=1;whiteSpace=wrap;connectable=0;strokeColor=#666666;overflow=hidden;fillColor=#B3B3B3;top=0;left=0;bottom=0;right=0;pointerEvents=1;fontStyle=1;fontSize=13;fontColor=#333333;" parent="NoP4yANCG9PIDfPH0jD4-157" vertex="1">
          <mxGeometry width="97" height="30" as="geometry">
            <mxRectangle width="97" height="30" as="alternateBounds" />
          </mxGeometry>
        </mxCell>
        <mxCell id="NoP4yANCG9PIDfPH0jD4-159" value="&lt;span style=&quot;text-align: left;&quot;&gt;power&lt;/span&gt;" style="shape=partialRectangle;html=1;whiteSpace=wrap;connectable=0;strokeColor=#666666;overflow=hidden;fillColor=#f5f5f5;top=0;left=0;bottom=0;right=0;pointerEvents=1;fontStyle=1;fontSize=13;fontColor=#333333;" parent="NoP4yANCG9PIDfPH0jD4-157" vertex="1">
          <mxGeometry x="97" width="96" height="30" as="geometry">
            <mxRectangle width="96" height="30" as="alternateBounds" />
          </mxGeometry>
        </mxCell>
        <mxCell id="NoP4yANCG9PIDfPH0jD4-160" value="&lt;span style=&quot;text-align: left;&quot;&gt;torque&lt;/span&gt;" style="shape=partialRectangle;html=1;whiteSpace=wrap;connectable=0;strokeColor=#666666;overflow=hidden;fillColor=#f5f5f5;top=0;left=0;bottom=0;right=0;pointerEvents=1;fontStyle=1;fontSize=13;fontColor=#333333;" parent="NoP4yANCG9PIDfPH0jD4-157" vertex="1">
          <mxGeometry x="193" width="97" height="30" as="geometry">
            <mxRectangle width="97" height="30" as="alternateBounds" />
          </mxGeometry>
        </mxCell>
        <mxCell id="NoP4yANCG9PIDfPH0jD4-161" value="&lt;span style=&quot;text-align: left;&quot;&gt;topSpeed&amp;nbsp; &amp;nbsp; &amp;nbsp;&lt;/span&gt;" style="shape=partialRectangle;html=1;whiteSpace=wrap;connectable=0;strokeColor=#666666;overflow=hidden;fillColor=#f5f5f5;top=0;left=0;bottom=0;right=0;pointerEvents=1;fontStyle=1;fontSize=13;fontColor=#333333;" parent="NoP4yANCG9PIDfPH0jD4-157" vertex="1">
          <mxGeometry x="290" width="97" height="30" as="geometry">
            <mxRectangle width="97" height="30" as="alternateBounds" />
          </mxGeometry>
        </mxCell>
        <mxCell id="NoP4yANCG9PIDfPH0jD4-162" value="&lt;span style=&quot;text-align: left;&quot;&gt;fuelConsumption&amp;nbsp;&amp;nbsp;&lt;/span&gt;" style="shape=partialRectangle;html=1;whiteSpace=wrap;connectable=0;strokeColor=#666666;overflow=hidden;fillColor=#f5f5f5;top=0;left=0;bottom=0;right=0;pointerEvents=1;fontStyle=1;fontSize=13;fontColor=#333333;" parent="NoP4yANCG9PIDfPH0jD4-157" vertex="1">
          <mxGeometry x="387" width="113" height="30" as="geometry">
            <mxRectangle width="113" height="30" as="alternateBounds" />
          </mxGeometry>
        </mxCell>
        <mxCell id="NoP4yANCG9PIDfPH0jD4-163" value="&lt;span style=&quot;text-align: left;&quot;&gt;emission&amp;nbsp; &amp;nbsp; &amp;nbsp;&lt;/span&gt;" style="shape=partialRectangle;html=1;whiteSpace=wrap;connectable=0;strokeColor=#666666;overflow=hidden;fillColor=#f5f5f5;top=0;left=0;bottom=0;right=0;pointerEvents=1;fontStyle=1;fontSize=13;fontColor=#333333;" parent="NoP4yANCG9PIDfPH0jD4-157" vertex="1">
          <mxGeometry x="500" width="80" height="30" as="geometry">
            <mxRectangle width="80" height="30" as="alternateBounds" />
          </mxGeometry>
        </mxCell>
        <mxCell id="NoP4yANCG9PIDfPH0jD4-164" value="" style="shape=tableRow;horizontal=0;startSize=0;swimlaneHead=0;swimlaneBody=0;strokeColor=inherit;top=0;left=0;bottom=0;right=0;collapsible=0;dropTarget=0;fillColor=none;points=[[0,0.5],[1,0.5]];portConstraint=eastwest;" parent="NoP4yANCG9PIDfPH0jD4-156" vertex="1">
          <mxGeometry y="30" width="580" height="40" as="geometry" />
        </mxCell>
        <mxCell id="NoP4yANCG9PIDfPH0jD4-165" value="" style="shape=partialRectangle;html=1;whiteSpace=wrap;connectable=0;strokeColor=inherit;overflow=hidden;fillColor=none;top=0;left=0;bottom=0;right=0;pointerEvents=1;" parent="NoP4yANCG9PIDfPH0jD4-164" vertex="1">
          <mxGeometry width="97" height="40" as="geometry">
            <mxRectangle width="97" height="40" as="alternateBounds" />
          </mxGeometry>
        </mxCell>
        <mxCell id="NoP4yANCG9PIDfPH0jD4-166" value="" style="shape=partialRectangle;html=1;whiteSpace=wrap;connectable=0;strokeColor=inherit;overflow=hidden;fillColor=none;top=0;left=0;bottom=0;right=0;pointerEvents=1;" parent="NoP4yANCG9PIDfPH0jD4-164" vertex="1">
          <mxGeometry x="97" width="96" height="40" as="geometry">
            <mxRectangle width="96" height="40" as="alternateBounds" />
          </mxGeometry>
        </mxCell>
        <mxCell id="NoP4yANCG9PIDfPH0jD4-167" value="" style="shape=partialRectangle;html=1;whiteSpace=wrap;connectable=0;strokeColor=inherit;overflow=hidden;fillColor=none;top=0;left=0;bottom=0;right=0;pointerEvents=1;" parent="NoP4yANCG9PIDfPH0jD4-164" vertex="1">
          <mxGeometry x="193" width="97" height="40" as="geometry">
            <mxRectangle width="97" height="40" as="alternateBounds" />
          </mxGeometry>
        </mxCell>
        <mxCell id="NoP4yANCG9PIDfPH0jD4-168" value="" style="shape=partialRectangle;html=1;whiteSpace=wrap;connectable=0;strokeColor=inherit;overflow=hidden;fillColor=none;top=0;left=0;bottom=0;right=0;pointerEvents=1;" parent="NoP4yANCG9PIDfPH0jD4-164" vertex="1">
          <mxGeometry x="290" width="97" height="40" as="geometry">
            <mxRectangle width="97" height="40" as="alternateBounds" />
          </mxGeometry>
        </mxCell>
        <mxCell id="NoP4yANCG9PIDfPH0jD4-169" value="" style="shape=partialRectangle;html=1;whiteSpace=wrap;connectable=0;strokeColor=inherit;overflow=hidden;fillColor=none;top=0;left=0;bottom=0;right=0;pointerEvents=1;" parent="NoP4yANCG9PIDfPH0jD4-164" vertex="1">
          <mxGeometry x="387" width="113" height="40" as="geometry">
            <mxRectangle width="113" height="40" as="alternateBounds" />
          </mxGeometry>
        </mxCell>
        <mxCell id="NoP4yANCG9PIDfPH0jD4-170" value="" style="shape=partialRectangle;html=1;whiteSpace=wrap;connectable=0;strokeColor=inherit;overflow=hidden;fillColor=none;top=0;left=0;bottom=0;right=0;pointerEvents=1;" parent="NoP4yANCG9PIDfPH0jD4-164" vertex="1">
          <mxGeometry x="500" width="80" height="40" as="geometry">
            <mxRectangle width="80" height="40" as="alternateBounds" />
          </mxGeometry>
        </mxCell>
        <mxCell id="NoP4yANCG9PIDfPH0jD4-171" value="" style="shape=tableRow;horizontal=0;startSize=0;swimlaneHead=0;swimlaneBody=0;strokeColor=inherit;top=0;left=0;bottom=0;right=0;collapsible=0;dropTarget=0;fillColor=none;points=[[0,0.5],[1,0.5]];portConstraint=eastwest;" parent="NoP4yANCG9PIDfPH0jD4-156" vertex="1">
          <mxGeometry y="70" width="580" height="40" as="geometry" />
        </mxCell>
        <mxCell id="NoP4yANCG9PIDfPH0jD4-172" value="" style="shape=partialRectangle;html=1;whiteSpace=wrap;connectable=0;strokeColor=inherit;overflow=hidden;fillColor=none;top=0;left=0;bottom=0;right=0;pointerEvents=1;" parent="NoP4yANCG9PIDfPH0jD4-171" vertex="1">
          <mxGeometry width="97" height="40" as="geometry">
            <mxRectangle width="97" height="40" as="alternateBounds" />
          </mxGeometry>
        </mxCell>
        <mxCell id="NoP4yANCG9PIDfPH0jD4-173" value="" style="shape=partialRectangle;html=1;whiteSpace=wrap;connectable=0;strokeColor=inherit;overflow=hidden;fillColor=none;top=0;left=0;bottom=0;right=0;pointerEvents=1;" parent="NoP4yANCG9PIDfPH0jD4-171" vertex="1">
          <mxGeometry x="97" width="96" height="40" as="geometry">
            <mxRectangle width="96" height="40" as="alternateBounds" />
          </mxGeometry>
        </mxCell>
        <mxCell id="NoP4yANCG9PIDfPH0jD4-174" value="" style="shape=partialRectangle;html=1;whiteSpace=wrap;connectable=0;strokeColor=inherit;overflow=hidden;fillColor=none;top=0;left=0;bottom=0;right=0;pointerEvents=1;" parent="NoP4yANCG9PIDfPH0jD4-171" vertex="1">
          <mxGeometry x="193" width="97" height="40" as="geometry">
            <mxRectangle width="97" height="40" as="alternateBounds" />
          </mxGeometry>
        </mxCell>
        <mxCell id="NoP4yANCG9PIDfPH0jD4-175" value="" style="shape=partialRectangle;html=1;whiteSpace=wrap;connectable=0;strokeColor=inherit;overflow=hidden;fillColor=none;top=0;left=0;bottom=0;right=0;pointerEvents=1;" parent="NoP4yANCG9PIDfPH0jD4-171" vertex="1">
          <mxGeometry x="290" width="97" height="40" as="geometry">
            <mxRectangle width="97" height="40" as="alternateBounds" />
          </mxGeometry>
        </mxCell>
        <mxCell id="NoP4yANCG9PIDfPH0jD4-176" value="" style="shape=partialRectangle;html=1;whiteSpace=wrap;connectable=0;strokeColor=inherit;overflow=hidden;fillColor=none;top=0;left=0;bottom=0;right=0;pointerEvents=1;" parent="NoP4yANCG9PIDfPH0jD4-171" vertex="1">
          <mxGeometry x="387" width="113" height="40" as="geometry">
            <mxRectangle width="113" height="40" as="alternateBounds" />
          </mxGeometry>
        </mxCell>
        <mxCell id="NoP4yANCG9PIDfPH0jD4-177" value="" style="shape=partialRectangle;html=1;whiteSpace=wrap;connectable=0;strokeColor=inherit;overflow=hidden;fillColor=none;top=0;left=0;bottom=0;right=0;pointerEvents=1;" parent="NoP4yANCG9PIDfPH0jD4-171" vertex="1">
          <mxGeometry x="500" width="80" height="40" as="geometry">
            <mxRectangle width="80" height="40" as="alternateBounds" />
          </mxGeometry>
        </mxCell>
        <mxCell id="NoP4yANCG9PIDfPH0jD4-185" value="" style="shape=table;startSize=0;container=1;collapsible=0;childLayout=tableLayout;" parent="1" vertex="1">
          <mxGeometry x="-1160" y="150" width="930" height="110" as="geometry" />
        </mxCell>
        <mxCell id="NoP4yANCG9PIDfPH0jD4-186" value="" style="shape=tableRow;horizontal=0;startSize=0;swimlaneHead=0;swimlaneBody=0;strokeColor=inherit;top=0;left=0;bottom=0;right=0;collapsible=0;dropTarget=0;fillColor=none;points=[[0,0.5],[1,0.5]];portConstraint=eastwest;" parent="NoP4yANCG9PIDfPH0jD4-185" vertex="1">
          <mxGeometry width="930" height="30" as="geometry" />
        </mxCell>
        <mxCell id="NoP4yANCG9PIDfPH0jD4-187" value="&lt;span style=&quot;color: rgb(0, 0, 0);&quot;&gt;DimensionsID&lt;/span&gt;" style="shape=partialRectangle;html=1;whiteSpace=wrap;connectable=0;strokeColor=inherit;overflow=hidden;fillColor=#B3B3B3;top=0;left=0;bottom=0;right=0;pointerEvents=1;fontStyle=1;fontSize=13;fontColor=#333333;align=center;verticalAlign=middle;strokeWidth=1;" parent="NoP4yANCG9PIDfPH0jD4-186" vertex="1">
          <mxGeometry width="100" height="30" as="geometry">
            <mxRectangle width="100" height="30" as="alternateBounds" />
          </mxGeometry>
        </mxCell>
        <mxCell id="NoP4yANCG9PIDfPH0jD4-188" value="&lt;span style=&quot;color: rgb(0, 0, 0);&quot;&gt;seatHeight&lt;/span&gt;" style="shape=partialRectangle;html=1;whiteSpace=wrap;connectable=0;strokeColor=inherit;overflow=hidden;fillColor=#f5f5f5;top=0;left=0;bottom=0;right=0;pointerEvents=1;fontStyle=1;fontSize=13;fontColor=#333333;align=center;verticalAlign=middle;strokeWidth=1;" parent="NoP4yANCG9PIDfPH0jD4-186" vertex="1">
          <mxGeometry x="100" width="99" height="30" as="geometry">
            <mxRectangle width="99" height="30" as="alternateBounds" />
          </mxGeometry>
        </mxCell>
        <mxCell id="NoP4yANCG9PIDfPH0jD4-189" value="&lt;span style=&quot;color: rgb(0, 0, 0); font-family: Helvetica; font-style: normal; font-variant-ligatures: normal; font-variant-caps: normal; letter-spacing: normal; orphans: 2; text-indent: 0px; text-transform: none; widows: 2; word-spacing: 0px; -webkit-text-stroke-width: 0px; white-space: normal; background-color: rgb(251, 251, 251); text-decoration-thickness: initial; text-decoration-style: initial; text-decoration-color: initial; float: none; display: inline !important;&quot;&gt;groundClearance&lt;/span&gt;" style="shape=partialRectangle;html=1;whiteSpace=wrap;connectable=0;strokeColor=inherit;overflow=hidden;fillColor=#f5f5f5;top=0;left=0;bottom=0;right=0;pointerEvents=1;fontStyle=1;fontSize=13;fontColor=#333333;align=center;verticalAlign=middle;strokeWidth=1;" parent="NoP4yANCG9PIDfPH0jD4-186" vertex="1">
          <mxGeometry x="199" width="111" height="30" as="geometry">
            <mxRectangle width="111" height="30" as="alternateBounds" />
          </mxGeometry>
        </mxCell>
        <mxCell id="NoP4yANCG9PIDfPH0jD4-190" value="&lt;span style=&quot;color: rgb(0, 0, 0);&quot;&gt;wheelbase&lt;/span&gt;" style="shape=partialRectangle;html=1;whiteSpace=wrap;connectable=0;strokeColor=inherit;overflow=hidden;fillColor=#f5f5f5;top=0;left=0;bottom=0;right=0;pointerEvents=1;fontStyle=1;fontSize=13;fontColor=#333333;align=center;verticalAlign=middle;strokeWidth=1;" parent="NoP4yANCG9PIDfPH0jD4-186" vertex="1">
          <mxGeometry x="310" width="100" height="30" as="geometry">
            <mxRectangle width="100" height="30" as="alternateBounds" />
          </mxGeometry>
        </mxCell>
        <mxCell id="NoP4yANCG9PIDfPH0jD4-191" value="&lt;span style=&quot;color: rgb(0, 0, 0);&quot;&gt;fuelCapacity&amp;nbsp; &amp;nbsp; &amp;nbsp;&lt;/span&gt;" style="shape=partialRectangle;html=1;whiteSpace=wrap;connectable=0;strokeColor=inherit;overflow=hidden;fillColor=#f5f5f5;top=0;left=0;bottom=0;right=0;pointerEvents=1;fontStyle=1;fontSize=13;fontColor=#333333;align=center;verticalAlign=middle;strokeWidth=1;" parent="NoP4yANCG9PIDfPH0jD4-186" vertex="1">
          <mxGeometry x="410" width="107" height="30" as="geometry">
            <mxRectangle width="107" height="30" as="alternateBounds" />
          </mxGeometry>
        </mxCell>
        <mxCell id="NoP4yANCG9PIDfPH0jD4-192" value="&lt;span style=&quot;color: rgb(0, 0, 0);&quot;&gt;totalWeight&lt;/span&gt;" style="shape=partialRectangle;html=1;whiteSpace=wrap;connectable=0;strokeColor=inherit;overflow=hidden;fillColor=#f5f5f5;top=0;left=0;bottom=0;right=0;pointerEvents=1;fontStyle=1;fontSize=13;fontColor=#333333;align=center;verticalAlign=middle;strokeWidth=1;" parent="NoP4yANCG9PIDfPH0jD4-186" vertex="1">
          <mxGeometry x="517" width="82" height="30" as="geometry">
            <mxRectangle width="82" height="30" as="alternateBounds" />
          </mxGeometry>
        </mxCell>
        <mxCell id="NoP4yANCG9PIDfPH0jD4-216" value="&lt;span style=&quot;color: rgb(0, 0, 0);&quot;&gt;totalHeight&lt;/span&gt;" style="shape=partialRectangle;html=1;whiteSpace=wrap;connectable=0;strokeColor=inherit;overflow=hidden;fillColor=#f5f5f5;top=0;left=0;bottom=0;right=0;pointerEvents=1;fontStyle=1;fontSize=13;fontColor=#333333;align=center;verticalAlign=middle;strokeWidth=1;" parent="NoP4yANCG9PIDfPH0jD4-186" vertex="1">
          <mxGeometry x="599" width="83" height="30" as="geometry">
            <mxRectangle width="83" height="30" as="alternateBounds" />
          </mxGeometry>
        </mxCell>
        <mxCell id="NoP4yANCG9PIDfPH0jD4-213" value="&lt;span style=&quot;color: rgb(0, 0, 0);&quot;&gt;totalLength&lt;/span&gt;" style="shape=partialRectangle;html=1;whiteSpace=wrap;connectable=0;strokeColor=inherit;overflow=hidden;fillColor=#f5f5f5;top=0;left=0;bottom=0;right=0;pointerEvents=1;fontStyle=1;fontSize=13;fontColor=#333333;align=center;verticalAlign=middle;strokeWidth=1;" parent="NoP4yANCG9PIDfPH0jD4-186" vertex="1">
          <mxGeometry x="682" width="83" height="30" as="geometry">
            <mxRectangle width="83" height="30" as="alternateBounds" />
          </mxGeometry>
        </mxCell>
        <mxCell id="NoP4yANCG9PIDfPH0jD4-210" value="&lt;span style=&quot;color: rgb(0, 0, 0);&quot;&gt;totalWidth&lt;/span&gt;" style="shape=partialRectangle;html=1;whiteSpace=wrap;connectable=0;strokeColor=inherit;overflow=hidden;fillColor=#f5f5f5;top=0;left=0;bottom=0;right=0;pointerEvents=1;fontStyle=1;fontSize=13;fontColor=#333333;align=center;verticalAlign=middle;strokeWidth=1;" parent="NoP4yANCG9PIDfPH0jD4-186" vertex="1">
          <mxGeometry x="765" width="82" height="30" as="geometry">
            <mxRectangle width="82" height="30" as="alternateBounds" />
          </mxGeometry>
        </mxCell>
        <mxCell id="NoP4yANCG9PIDfPH0jD4-207" value="&lt;span style=&quot;color: rgb(0, 0, 0);&quot;&gt;dryWeight&lt;/span&gt;" style="shape=partialRectangle;html=1;whiteSpace=wrap;connectable=0;strokeColor=inherit;overflow=hidden;fillColor=#f5f5f5;top=0;left=0;bottom=0;right=0;pointerEvents=1;fontStyle=1;fontSize=13;fontColor=#333333;align=center;verticalAlign=middle;strokeWidth=1;" parent="NoP4yANCG9PIDfPH0jD4-186" vertex="1">
          <mxGeometry x="847" width="83" height="30" as="geometry">
            <mxRectangle width="83" height="30" as="alternateBounds" />
          </mxGeometry>
        </mxCell>
        <mxCell id="NoP4yANCG9PIDfPH0jD4-193" value="" style="shape=tableRow;horizontal=0;startSize=0;swimlaneHead=0;swimlaneBody=0;strokeColor=inherit;top=0;left=0;bottom=0;right=0;collapsible=0;dropTarget=0;fillColor=none;points=[[0,0.5],[1,0.5]];portConstraint=eastwest;" parent="NoP4yANCG9PIDfPH0jD4-185" vertex="1">
          <mxGeometry y="30" width="930" height="40" as="geometry" />
        </mxCell>
        <mxCell id="NoP4yANCG9PIDfPH0jD4-194" value="" style="shape=partialRectangle;html=1;whiteSpace=wrap;connectable=0;strokeColor=inherit;overflow=hidden;fillColor=none;top=0;left=0;bottom=0;right=0;pointerEvents=1;strokeWidth=1;" parent="NoP4yANCG9PIDfPH0jD4-193" vertex="1">
          <mxGeometry width="100" height="40" as="geometry">
            <mxRectangle width="100" height="40" as="alternateBounds" />
          </mxGeometry>
        </mxCell>
        <mxCell id="NoP4yANCG9PIDfPH0jD4-195" value="" style="shape=partialRectangle;html=1;whiteSpace=wrap;connectable=0;strokeColor=inherit;overflow=hidden;fillColor=none;top=0;left=0;bottom=0;right=0;pointerEvents=1;strokeWidth=1;" parent="NoP4yANCG9PIDfPH0jD4-193" vertex="1">
          <mxGeometry x="100" width="99" height="40" as="geometry">
            <mxRectangle width="99" height="40" as="alternateBounds" />
          </mxGeometry>
        </mxCell>
        <mxCell id="NoP4yANCG9PIDfPH0jD4-196" value="" style="shape=partialRectangle;html=1;whiteSpace=wrap;connectable=0;strokeColor=inherit;overflow=hidden;fillColor=none;top=0;left=0;bottom=0;right=0;pointerEvents=1;strokeWidth=1;" parent="NoP4yANCG9PIDfPH0jD4-193" vertex="1">
          <mxGeometry x="199" width="111" height="40" as="geometry">
            <mxRectangle width="111" height="40" as="alternateBounds" />
          </mxGeometry>
        </mxCell>
        <mxCell id="NoP4yANCG9PIDfPH0jD4-197" value="" style="shape=partialRectangle;html=1;whiteSpace=wrap;connectable=0;strokeColor=inherit;overflow=hidden;fillColor=none;top=0;left=0;bottom=0;right=0;pointerEvents=1;strokeWidth=1;" parent="NoP4yANCG9PIDfPH0jD4-193" vertex="1">
          <mxGeometry x="310" width="100" height="40" as="geometry">
            <mxRectangle width="100" height="40" as="alternateBounds" />
          </mxGeometry>
        </mxCell>
        <mxCell id="NoP4yANCG9PIDfPH0jD4-198" value="" style="shape=partialRectangle;html=1;whiteSpace=wrap;connectable=0;strokeColor=inherit;overflow=hidden;fillColor=none;top=0;left=0;bottom=0;right=0;pointerEvents=1;strokeWidth=1;" parent="NoP4yANCG9PIDfPH0jD4-193" vertex="1">
          <mxGeometry x="410" width="107" height="40" as="geometry">
            <mxRectangle width="107" height="40" as="alternateBounds" />
          </mxGeometry>
        </mxCell>
        <mxCell id="NoP4yANCG9PIDfPH0jD4-199" value="" style="shape=partialRectangle;html=1;whiteSpace=wrap;connectable=0;strokeColor=inherit;overflow=hidden;fillColor=none;top=0;left=0;bottom=0;right=0;pointerEvents=1;strokeWidth=1;" parent="NoP4yANCG9PIDfPH0jD4-193" vertex="1">
          <mxGeometry x="517" width="82" height="40" as="geometry">
            <mxRectangle width="82" height="40" as="alternateBounds" />
          </mxGeometry>
        </mxCell>
        <mxCell id="NoP4yANCG9PIDfPH0jD4-217" style="shape=partialRectangle;html=1;whiteSpace=wrap;connectable=0;strokeColor=inherit;overflow=hidden;fillColor=none;top=0;left=0;bottom=0;right=0;pointerEvents=1;strokeWidth=1;" parent="NoP4yANCG9PIDfPH0jD4-193" vertex="1">
          <mxGeometry x="599" width="83" height="40" as="geometry">
            <mxRectangle width="83" height="40" as="alternateBounds" />
          </mxGeometry>
        </mxCell>
        <mxCell id="NoP4yANCG9PIDfPH0jD4-214" style="shape=partialRectangle;html=1;whiteSpace=wrap;connectable=0;strokeColor=inherit;overflow=hidden;fillColor=none;top=0;left=0;bottom=0;right=0;pointerEvents=1;strokeWidth=1;" parent="NoP4yANCG9PIDfPH0jD4-193" vertex="1">
          <mxGeometry x="682" width="83" height="40" as="geometry">
            <mxRectangle width="83" height="40" as="alternateBounds" />
          </mxGeometry>
        </mxCell>
        <mxCell id="NoP4yANCG9PIDfPH0jD4-211" style="shape=partialRectangle;html=1;whiteSpace=wrap;connectable=0;strokeColor=inherit;overflow=hidden;fillColor=none;top=0;left=0;bottom=0;right=0;pointerEvents=1;strokeWidth=1;" parent="NoP4yANCG9PIDfPH0jD4-193" vertex="1">
          <mxGeometry x="765" width="82" height="40" as="geometry">
            <mxRectangle width="82" height="40" as="alternateBounds" />
          </mxGeometry>
        </mxCell>
        <mxCell id="NoP4yANCG9PIDfPH0jD4-208" style="shape=partialRectangle;html=1;whiteSpace=wrap;connectable=0;strokeColor=inherit;overflow=hidden;fillColor=none;top=0;left=0;bottom=0;right=0;pointerEvents=1;strokeWidth=1;" parent="NoP4yANCG9PIDfPH0jD4-193" vertex="1">
          <mxGeometry x="847" width="83" height="40" as="geometry">
            <mxRectangle width="83" height="40" as="alternateBounds" />
          </mxGeometry>
        </mxCell>
        <mxCell id="NoP4yANCG9PIDfPH0jD4-200" value="" style="shape=tableRow;horizontal=0;startSize=0;swimlaneHead=0;swimlaneBody=0;strokeColor=inherit;top=0;left=0;bottom=0;right=0;collapsible=0;dropTarget=0;fillColor=none;points=[[0,0.5],[1,0.5]];portConstraint=eastwest;" parent="NoP4yANCG9PIDfPH0jD4-185" vertex="1">
          <mxGeometry y="70" width="930" height="40" as="geometry" />
        </mxCell>
        <mxCell id="NoP4yANCG9PIDfPH0jD4-201" value="" style="shape=partialRectangle;html=1;whiteSpace=wrap;connectable=0;strokeColor=inherit;overflow=hidden;fillColor=none;top=0;left=0;bottom=0;right=0;pointerEvents=1;strokeWidth=1;" parent="NoP4yANCG9PIDfPH0jD4-200" vertex="1">
          <mxGeometry width="100" height="40" as="geometry">
            <mxRectangle width="100" height="40" as="alternateBounds" />
          </mxGeometry>
        </mxCell>
        <mxCell id="NoP4yANCG9PIDfPH0jD4-202" value="" style="shape=partialRectangle;html=1;whiteSpace=wrap;connectable=0;strokeColor=inherit;overflow=hidden;fillColor=none;top=0;left=0;bottom=0;right=0;pointerEvents=1;strokeWidth=1;" parent="NoP4yANCG9PIDfPH0jD4-200" vertex="1">
          <mxGeometry x="100" width="99" height="40" as="geometry">
            <mxRectangle width="99" height="40" as="alternateBounds" />
          </mxGeometry>
        </mxCell>
        <mxCell id="NoP4yANCG9PIDfPH0jD4-203" value="" style="shape=partialRectangle;html=1;whiteSpace=wrap;connectable=0;strokeColor=inherit;overflow=hidden;fillColor=none;top=0;left=0;bottom=0;right=0;pointerEvents=1;strokeWidth=1;" parent="NoP4yANCG9PIDfPH0jD4-200" vertex="1">
          <mxGeometry x="199" width="111" height="40" as="geometry">
            <mxRectangle width="111" height="40" as="alternateBounds" />
          </mxGeometry>
        </mxCell>
        <mxCell id="NoP4yANCG9PIDfPH0jD4-204" value="" style="shape=partialRectangle;html=1;whiteSpace=wrap;connectable=0;strokeColor=inherit;overflow=hidden;fillColor=none;top=0;left=0;bottom=0;right=0;pointerEvents=1;strokeWidth=1;" parent="NoP4yANCG9PIDfPH0jD4-200" vertex="1">
          <mxGeometry x="310" width="100" height="40" as="geometry">
            <mxRectangle width="100" height="40" as="alternateBounds" />
          </mxGeometry>
        </mxCell>
        <mxCell id="NoP4yANCG9PIDfPH0jD4-205" value="" style="shape=partialRectangle;html=1;whiteSpace=wrap;connectable=0;strokeColor=inherit;overflow=hidden;fillColor=none;top=0;left=0;bottom=0;right=0;pointerEvents=1;strokeWidth=1;" parent="NoP4yANCG9PIDfPH0jD4-200" vertex="1">
          <mxGeometry x="410" width="107" height="40" as="geometry">
            <mxRectangle width="107" height="40" as="alternateBounds" />
          </mxGeometry>
        </mxCell>
        <mxCell id="NoP4yANCG9PIDfPH0jD4-206" value="" style="shape=partialRectangle;html=1;whiteSpace=wrap;connectable=0;strokeColor=inherit;overflow=hidden;fillColor=none;top=0;left=0;bottom=0;right=0;pointerEvents=1;strokeWidth=1;" parent="NoP4yANCG9PIDfPH0jD4-200" vertex="1">
          <mxGeometry x="517" width="82" height="40" as="geometry">
            <mxRectangle width="82" height="40" as="alternateBounds" />
          </mxGeometry>
        </mxCell>
        <mxCell id="NoP4yANCG9PIDfPH0jD4-218" style="shape=partialRectangle;html=1;whiteSpace=wrap;connectable=0;strokeColor=inherit;overflow=hidden;fillColor=none;top=0;left=0;bottom=0;right=0;pointerEvents=1;strokeWidth=1;" parent="NoP4yANCG9PIDfPH0jD4-200" vertex="1">
          <mxGeometry x="599" width="83" height="40" as="geometry">
            <mxRectangle width="83" height="40" as="alternateBounds" />
          </mxGeometry>
        </mxCell>
        <mxCell id="NoP4yANCG9PIDfPH0jD4-215" style="shape=partialRectangle;html=1;whiteSpace=wrap;connectable=0;strokeColor=inherit;overflow=hidden;fillColor=none;top=0;left=0;bottom=0;right=0;pointerEvents=1;strokeWidth=1;" parent="NoP4yANCG9PIDfPH0jD4-200" vertex="1">
          <mxGeometry x="682" width="83" height="40" as="geometry">
            <mxRectangle width="83" height="40" as="alternateBounds" />
          </mxGeometry>
        </mxCell>
        <mxCell id="NoP4yANCG9PIDfPH0jD4-212" style="shape=partialRectangle;html=1;whiteSpace=wrap;connectable=0;strokeColor=inherit;overflow=hidden;fillColor=none;top=0;left=0;bottom=0;right=0;pointerEvents=1;strokeWidth=1;" parent="NoP4yANCG9PIDfPH0jD4-200" vertex="1">
          <mxGeometry x="765" width="82" height="40" as="geometry">
            <mxRectangle width="82" height="40" as="alternateBounds" />
          </mxGeometry>
        </mxCell>
        <mxCell id="NoP4yANCG9PIDfPH0jD4-209" style="shape=partialRectangle;html=1;whiteSpace=wrap;connectable=0;strokeColor=inherit;overflow=hidden;fillColor=none;top=0;left=0;bottom=0;right=0;pointerEvents=1;strokeWidth=1;" parent="NoP4yANCG9PIDfPH0jD4-200" vertex="1">
          <mxGeometry x="847" width="83" height="40" as="geometry">
            <mxRectangle width="83" height="40" as="alternateBounds" />
          </mxGeometry>
        </mxCell>
        <mxCell id="NoP4yANCG9PIDfPH0jD4-219" value="" style="shape=table;startSize=0;container=1;collapsible=0;childLayout=tableLayout;" parent="1" vertex="1">
          <mxGeometry x="-520" y="370" width="760" height="110" as="geometry" />
        </mxCell>
        <mxCell id="NoP4yANCG9PIDfPH0jD4-220" value="" style="shape=tableRow;horizontal=0;startSize=0;swimlaneHead=0;swimlaneBody=0;strokeColor=inherit;top=0;left=0;bottom=0;right=0;collapsible=0;dropTarget=0;fillColor=none;points=[[0,0.5],[1,0.5]];portConstraint=eastwest;" parent="NoP4yANCG9PIDfPH0jD4-219" vertex="1">
          <mxGeometry width="760" height="30" as="geometry" />
        </mxCell>
        <mxCell id="NoP4yANCG9PIDfPH0jD4-221" value="&lt;span style=&quot;color: rgb(0, 0, 0);&quot;&gt;SuspensionID&lt;/span&gt;" style="shape=partialRectangle;html=1;whiteSpace=wrap;connectable=0;strokeColor=#000000;overflow=hidden;fillColor=#B3B3B3;top=0;left=0;bottom=0;right=0;pointerEvents=1;fontStyle=1;fontSize=13;fontColor=#333333;align=center;" parent="NoP4yANCG9PIDfPH0jD4-220" vertex="1">
          <mxGeometry width="112" height="30" as="geometry">
            <mxRectangle width="112" height="30" as="alternateBounds" />
          </mxGeometry>
        </mxCell>
        <mxCell id="NoP4yANCG9PIDfPH0jD4-222" value="&lt;span style=&quot;color: rgb(0, 0, 0);&quot;&gt;frontSuspension&lt;/span&gt;" style="shape=partialRectangle;html=1;whiteSpace=wrap;connectable=0;strokeColor=#000000;overflow=hidden;fillColor=#f5f5f5;top=0;left=0;bottom=0;right=0;pointerEvents=1;fontStyle=1;fontSize=13;fontColor=#333333;align=center;" parent="NoP4yANCG9PIDfPH0jD4-220" vertex="1">
          <mxGeometry x="112" width="111" height="30" as="geometry">
            <mxRectangle width="111" height="30" as="alternateBounds" />
          </mxGeometry>
        </mxCell>
        <mxCell id="NoP4yANCG9PIDfPH0jD4-223" value="&lt;span style=&quot;color: rgb(0, 0, 0);&quot;&gt;frontWheelTravel&lt;/span&gt;" style="shape=partialRectangle;html=1;whiteSpace=wrap;connectable=0;strokeColor=#000000;overflow=hidden;fillColor=#f5f5f5;top=0;left=0;bottom=0;right=0;pointerEvents=1;fontStyle=1;fontSize=13;fontColor=#333333;align=center;" parent="NoP4yANCG9PIDfPH0jD4-220" vertex="1">
          <mxGeometry x="223" width="111" height="30" as="geometry">
            <mxRectangle width="111" height="30" as="alternateBounds" />
          </mxGeometry>
        </mxCell>
        <mxCell id="NoP4yANCG9PIDfPH0jD4-224" value="&lt;span style=&quot;color: rgb(0, 0, 0);&quot;&gt;rearSuspension&lt;/span&gt;" style="shape=partialRectangle;html=1;whiteSpace=wrap;connectable=0;strokeColor=#000000;overflow=hidden;fillColor=#f5f5f5;top=0;left=0;bottom=0;right=0;pointerEvents=1;fontStyle=1;fontSize=13;fontColor=#333333;align=center;" parent="NoP4yANCG9PIDfPH0jD4-220" vertex="1">
          <mxGeometry x="334" width="111" height="30" as="geometry">
            <mxRectangle width="111" height="30" as="alternateBounds" />
          </mxGeometry>
        </mxCell>
        <mxCell id="NoP4yANCG9PIDfPH0jD4-225" value="&lt;span style=&quot;color: rgb(0, 0, 0);&quot;&gt;rearWheelTravel&lt;/span&gt;" style="shape=partialRectangle;html=1;whiteSpace=wrap;connectable=0;strokeColor=#000000;overflow=hidden;fillColor=#f5f5f5;top=0;left=0;bottom=0;right=0;pointerEvents=1;fontStyle=1;fontSize=13;fontColor=#333333;align=center;" parent="NoP4yANCG9PIDfPH0jD4-220" vertex="1">
          <mxGeometry x="445" width="130" height="30" as="geometry">
            <mxRectangle width="130" height="30" as="alternateBounds" />
          </mxGeometry>
        </mxCell>
        <mxCell id="NoP4yANCG9PIDfPH0jD4-226" value="&lt;span style=&quot;color: rgb(0, 0, 0);&quot;&gt;frontTire&lt;/span&gt;" style="shape=partialRectangle;html=1;whiteSpace=wrap;connectable=0;strokeColor=#000000;overflow=hidden;fillColor=#f5f5f5;top=0;left=0;bottom=0;right=0;pointerEvents=1;fontStyle=1;fontSize=13;fontColor=#333333;align=center;" parent="NoP4yANCG9PIDfPH0jD4-220" vertex="1">
          <mxGeometry x="575" width="93" height="30" as="geometry">
            <mxRectangle width="93" height="30" as="alternateBounds" />
          </mxGeometry>
        </mxCell>
        <mxCell id="NoP4yANCG9PIDfPH0jD4-241" value="&lt;span style=&quot;color: rgb(0, 0, 0);&quot;&gt;rearTire&lt;/span&gt;" style="shape=partialRectangle;html=1;whiteSpace=wrap;connectable=0;strokeColor=#000000;overflow=hidden;fillColor=#f5f5f5;top=0;left=0;bottom=0;right=0;pointerEvents=1;fontStyle=1;fontSize=13;fontColor=#333333;align=center;" parent="NoP4yANCG9PIDfPH0jD4-220" vertex="1">
          <mxGeometry x="668" width="92" height="30" as="geometry">
            <mxRectangle width="92" height="30" as="alternateBounds" />
          </mxGeometry>
        </mxCell>
        <mxCell id="NoP4yANCG9PIDfPH0jD4-227" value="" style="shape=tableRow;horizontal=0;startSize=0;swimlaneHead=0;swimlaneBody=0;strokeColor=inherit;top=0;left=0;bottom=0;right=0;collapsible=0;dropTarget=0;fillColor=none;points=[[0,0.5],[1,0.5]];portConstraint=eastwest;" parent="NoP4yANCG9PIDfPH0jD4-219" vertex="1">
          <mxGeometry y="30" width="760" height="40" as="geometry" />
        </mxCell>
        <mxCell id="NoP4yANCG9PIDfPH0jD4-228" value="" style="shape=partialRectangle;html=1;whiteSpace=wrap;connectable=0;strokeColor=inherit;overflow=hidden;fillColor=none;top=0;left=0;bottom=0;right=0;pointerEvents=1;" parent="NoP4yANCG9PIDfPH0jD4-227" vertex="1">
          <mxGeometry width="112" height="40" as="geometry">
            <mxRectangle width="112" height="40" as="alternateBounds" />
          </mxGeometry>
        </mxCell>
        <mxCell id="NoP4yANCG9PIDfPH0jD4-229" value="" style="shape=partialRectangle;html=1;whiteSpace=wrap;connectable=0;strokeColor=inherit;overflow=hidden;fillColor=none;top=0;left=0;bottom=0;right=0;pointerEvents=1;" parent="NoP4yANCG9PIDfPH0jD4-227" vertex="1">
          <mxGeometry x="112" width="111" height="40" as="geometry">
            <mxRectangle width="111" height="40" as="alternateBounds" />
          </mxGeometry>
        </mxCell>
        <mxCell id="NoP4yANCG9PIDfPH0jD4-230" value="" style="shape=partialRectangle;html=1;whiteSpace=wrap;connectable=0;strokeColor=inherit;overflow=hidden;fillColor=none;top=0;left=0;bottom=0;right=0;pointerEvents=1;" parent="NoP4yANCG9PIDfPH0jD4-227" vertex="1">
          <mxGeometry x="223" width="111" height="40" as="geometry">
            <mxRectangle width="111" height="40" as="alternateBounds" />
          </mxGeometry>
        </mxCell>
        <mxCell id="NoP4yANCG9PIDfPH0jD4-231" value="" style="shape=partialRectangle;html=1;whiteSpace=wrap;connectable=0;strokeColor=inherit;overflow=hidden;fillColor=none;top=0;left=0;bottom=0;right=0;pointerEvents=1;" parent="NoP4yANCG9PIDfPH0jD4-227" vertex="1">
          <mxGeometry x="334" width="111" height="40" as="geometry">
            <mxRectangle width="111" height="40" as="alternateBounds" />
          </mxGeometry>
        </mxCell>
        <mxCell id="NoP4yANCG9PIDfPH0jD4-232" value="" style="shape=partialRectangle;html=1;whiteSpace=wrap;connectable=0;strokeColor=inherit;overflow=hidden;fillColor=none;top=0;left=0;bottom=0;right=0;pointerEvents=1;" parent="NoP4yANCG9PIDfPH0jD4-227" vertex="1">
          <mxGeometry x="445" width="130" height="40" as="geometry">
            <mxRectangle width="130" height="40" as="alternateBounds" />
          </mxGeometry>
        </mxCell>
        <mxCell id="NoP4yANCG9PIDfPH0jD4-233" value="" style="shape=partialRectangle;html=1;whiteSpace=wrap;connectable=0;strokeColor=inherit;overflow=hidden;fillColor=none;top=0;left=0;bottom=0;right=0;pointerEvents=1;" parent="NoP4yANCG9PIDfPH0jD4-227" vertex="1">
          <mxGeometry x="575" width="93" height="40" as="geometry">
            <mxRectangle width="93" height="40" as="alternateBounds" />
          </mxGeometry>
        </mxCell>
        <mxCell id="NoP4yANCG9PIDfPH0jD4-242" style="shape=partialRectangle;html=1;whiteSpace=wrap;connectable=0;strokeColor=inherit;overflow=hidden;fillColor=none;top=0;left=0;bottom=0;right=0;pointerEvents=1;" parent="NoP4yANCG9PIDfPH0jD4-227" vertex="1">
          <mxGeometry x="668" width="92" height="40" as="geometry">
            <mxRectangle width="92" height="40" as="alternateBounds" />
          </mxGeometry>
        </mxCell>
        <mxCell id="NoP4yANCG9PIDfPH0jD4-234" value="" style="shape=tableRow;horizontal=0;startSize=0;swimlaneHead=0;swimlaneBody=0;strokeColor=inherit;top=0;left=0;bottom=0;right=0;collapsible=0;dropTarget=0;fillColor=none;points=[[0,0.5],[1,0.5]];portConstraint=eastwest;" parent="NoP4yANCG9PIDfPH0jD4-219" vertex="1">
          <mxGeometry y="70" width="760" height="40" as="geometry" />
        </mxCell>
        <mxCell id="NoP4yANCG9PIDfPH0jD4-235" value="" style="shape=partialRectangle;html=1;whiteSpace=wrap;connectable=0;strokeColor=inherit;overflow=hidden;fillColor=none;top=0;left=0;bottom=0;right=0;pointerEvents=1;" parent="NoP4yANCG9PIDfPH0jD4-234" vertex="1">
          <mxGeometry width="112" height="40" as="geometry">
            <mxRectangle width="112" height="40" as="alternateBounds" />
          </mxGeometry>
        </mxCell>
        <mxCell id="NoP4yANCG9PIDfPH0jD4-236" value="" style="shape=partialRectangle;html=1;whiteSpace=wrap;connectable=0;strokeColor=inherit;overflow=hidden;fillColor=none;top=0;left=0;bottom=0;right=0;pointerEvents=1;" parent="NoP4yANCG9PIDfPH0jD4-234" vertex="1">
          <mxGeometry x="112" width="111" height="40" as="geometry">
            <mxRectangle width="111" height="40" as="alternateBounds" />
          </mxGeometry>
        </mxCell>
        <mxCell id="NoP4yANCG9PIDfPH0jD4-237" value="" style="shape=partialRectangle;html=1;whiteSpace=wrap;connectable=0;strokeColor=inherit;overflow=hidden;fillColor=none;top=0;left=0;bottom=0;right=0;pointerEvents=1;" parent="NoP4yANCG9PIDfPH0jD4-234" vertex="1">
          <mxGeometry x="223" width="111" height="40" as="geometry">
            <mxRectangle width="111" height="40" as="alternateBounds" />
          </mxGeometry>
        </mxCell>
        <mxCell id="NoP4yANCG9PIDfPH0jD4-238" value="" style="shape=partialRectangle;html=1;whiteSpace=wrap;connectable=0;strokeColor=inherit;overflow=hidden;fillColor=none;top=0;left=0;bottom=0;right=0;pointerEvents=1;" parent="NoP4yANCG9PIDfPH0jD4-234" vertex="1">
          <mxGeometry x="334" width="111" height="40" as="geometry">
            <mxRectangle width="111" height="40" as="alternateBounds" />
          </mxGeometry>
        </mxCell>
        <mxCell id="NoP4yANCG9PIDfPH0jD4-239" value="" style="shape=partialRectangle;html=1;whiteSpace=wrap;connectable=0;strokeColor=inherit;overflow=hidden;fillColor=none;top=0;left=0;bottom=0;right=0;pointerEvents=1;" parent="NoP4yANCG9PIDfPH0jD4-234" vertex="1">
          <mxGeometry x="445" width="130" height="40" as="geometry">
            <mxRectangle width="130" height="40" as="alternateBounds" />
          </mxGeometry>
        </mxCell>
        <mxCell id="NoP4yANCG9PIDfPH0jD4-240" value="" style="shape=partialRectangle;html=1;whiteSpace=wrap;connectable=0;strokeColor=inherit;overflow=hidden;fillColor=none;top=0;left=0;bottom=0;right=0;pointerEvents=1;" parent="NoP4yANCG9PIDfPH0jD4-234" vertex="1">
          <mxGeometry x="575" width="93" height="40" as="geometry">
            <mxRectangle width="93" height="40" as="alternateBounds" />
          </mxGeometry>
        </mxCell>
        <mxCell id="NoP4yANCG9PIDfPH0jD4-243" style="shape=partialRectangle;html=1;whiteSpace=wrap;connectable=0;strokeColor=inherit;overflow=hidden;fillColor=none;top=0;left=0;bottom=0;right=0;pointerEvents=1;" parent="NoP4yANCG9PIDfPH0jD4-234" vertex="1">
          <mxGeometry x="668" width="92" height="40" as="geometry">
            <mxRectangle width="92" height="40" as="alternateBounds" />
          </mxGeometry>
        </mxCell>
        <mxCell id="NoP4yANCG9PIDfPH0jD4-245" value="" style="shape=table;startSize=0;container=1;collapsible=0;childLayout=tableLayout;" parent="1" vertex="1">
          <mxGeometry x="-2260" y="410" width="193" height="110" as="geometry" />
        </mxCell>
        <mxCell id="NoP4yANCG9PIDfPH0jD4-246" value="" style="shape=tableRow;horizontal=0;startSize=0;swimlaneHead=0;swimlaneBody=0;strokeColor=inherit;top=0;left=0;bottom=0;right=0;collapsible=0;dropTarget=0;fillColor=none;points=[[0,0.5],[1,0.5]];portConstraint=eastwest;" parent="NoP4yANCG9PIDfPH0jD4-245" vertex="1">
          <mxGeometry width="193" height="30" as="geometry" />
        </mxCell>
        <mxCell id="NoP4yANCG9PIDfPH0jD4-247" value="&lt;span style=&quot;color: rgb(0, 0, 0);&quot;&gt;MakeID&lt;/span&gt;" style="shape=partialRectangle;html=1;whiteSpace=wrap;connectable=0;strokeColor=#666666;overflow=hidden;fillColor=#B3B3B3;top=0;left=0;bottom=0;right=0;pointerEvents=1;fontStyle=1;fontSize=13;fontColor=#333333;align=center;" parent="NoP4yANCG9PIDfPH0jD4-246" vertex="1">
          <mxGeometry width="100" height="30" as="geometry">
            <mxRectangle width="100" height="30" as="alternateBounds" />
          </mxGeometry>
        </mxCell>
        <mxCell id="NoP4yANCG9PIDfPH0jD4-248" value="&lt;span style=&quot;color: rgb(0, 0, 0);&quot;&gt;name&lt;/span&gt;" style="shape=partialRectangle;html=1;whiteSpace=wrap;connectable=0;strokeColor=#666666;overflow=hidden;fillColor=#f5f5f5;top=0;left=0;bottom=0;right=0;pointerEvents=1;fontStyle=1;fontSize=13;fontColor=#333333;align=center;" parent="NoP4yANCG9PIDfPH0jD4-246" vertex="1">
          <mxGeometry x="100" width="93" height="30" as="geometry">
            <mxRectangle width="93" height="30" as="alternateBounds" />
          </mxGeometry>
        </mxCell>
        <mxCell id="NoP4yANCG9PIDfPH0jD4-253" value="" style="shape=tableRow;horizontal=0;startSize=0;swimlaneHead=0;swimlaneBody=0;strokeColor=inherit;top=0;left=0;bottom=0;right=0;collapsible=0;dropTarget=0;fillColor=none;points=[[0,0.5],[1,0.5]];portConstraint=eastwest;" parent="NoP4yANCG9PIDfPH0jD4-245" vertex="1">
          <mxGeometry y="30" width="193" height="40" as="geometry" />
        </mxCell>
        <mxCell id="NoP4yANCG9PIDfPH0jD4-254" value="" style="shape=partialRectangle;html=1;whiteSpace=wrap;connectable=0;strokeColor=inherit;overflow=hidden;fillColor=none;top=0;left=0;bottom=0;right=0;pointerEvents=1;" parent="NoP4yANCG9PIDfPH0jD4-253" vertex="1">
          <mxGeometry width="100" height="40" as="geometry">
            <mxRectangle width="100" height="40" as="alternateBounds" />
          </mxGeometry>
        </mxCell>
        <mxCell id="NoP4yANCG9PIDfPH0jD4-255" value="" style="shape=partialRectangle;html=1;whiteSpace=wrap;connectable=0;strokeColor=inherit;overflow=hidden;fillColor=none;top=0;left=0;bottom=0;right=0;pointerEvents=1;" parent="NoP4yANCG9PIDfPH0jD4-253" vertex="1">
          <mxGeometry x="100" width="93" height="40" as="geometry">
            <mxRectangle width="93" height="40" as="alternateBounds" />
          </mxGeometry>
        </mxCell>
        <mxCell id="NoP4yANCG9PIDfPH0jD4-260" value="" style="shape=tableRow;horizontal=0;startSize=0;swimlaneHead=0;swimlaneBody=0;strokeColor=inherit;top=0;left=0;bottom=0;right=0;collapsible=0;dropTarget=0;fillColor=none;points=[[0,0.5],[1,0.5]];portConstraint=eastwest;" parent="NoP4yANCG9PIDfPH0jD4-245" vertex="1">
          <mxGeometry y="70" width="193" height="40" as="geometry" />
        </mxCell>
        <mxCell id="NoP4yANCG9PIDfPH0jD4-261" value="" style="shape=partialRectangle;html=1;whiteSpace=wrap;connectable=0;strokeColor=inherit;overflow=hidden;fillColor=none;top=0;left=0;bottom=0;right=0;pointerEvents=1;" parent="NoP4yANCG9PIDfPH0jD4-260" vertex="1">
          <mxGeometry width="100" height="40" as="geometry">
            <mxRectangle width="100" height="40" as="alternateBounds" />
          </mxGeometry>
        </mxCell>
        <mxCell id="NoP4yANCG9PIDfPH0jD4-262" value="" style="shape=partialRectangle;html=1;whiteSpace=wrap;connectable=0;strokeColor=inherit;overflow=hidden;fillColor=none;top=0;left=0;bottom=0;right=0;pointerEvents=1;" parent="NoP4yANCG9PIDfPH0jD4-260" vertex="1">
          <mxGeometry x="100" width="93" height="40" as="geometry">
            <mxRectangle width="93" height="40" as="alternateBounds" />
          </mxGeometry>
        </mxCell>
        <mxCell id="NoP4yANCG9PIDfPH0jD4-267" value="" style="shape=table;startSize=0;container=1;collapsible=0;childLayout=tableLayout;" parent="1" vertex="1">
          <mxGeometry x="-2150" y="540" width="391" height="110" as="geometry" />
        </mxCell>
        <mxCell id="NoP4yANCG9PIDfPH0jD4-268" value="" style="shape=tableRow;horizontal=0;startSize=0;swimlaneHead=0;swimlaneBody=0;strokeColor=inherit;top=0;left=0;bottom=0;right=0;collapsible=0;dropTarget=0;fillColor=none;points=[[0,0.5],[1,0.5]];portConstraint=eastwest;" parent="NoP4yANCG9PIDfPH0jD4-267" vertex="1">
          <mxGeometry width="391" height="30" as="geometry" />
        </mxCell>
        <mxCell id="NoP4yANCG9PIDfPH0jD4-269" value="&lt;span style=&quot;color: rgb(0, 0, 0);&quot;&gt;MotorcycleMakeID&lt;/span&gt;" style="shape=partialRectangle;html=1;whiteSpace=wrap;connectable=0;strokeColor=#666666;overflow=hidden;fillColor=#B3B3B3;top=0;left=0;bottom=0;right=0;pointerEvents=1;fontStyle=1;fontSize=13;fontColor=#333333;align=center;" parent="NoP4yANCG9PIDfPH0jD4-268" vertex="1">
          <mxGeometry width="131" height="30" as="geometry">
            <mxRectangle width="131" height="30" as="alternateBounds" />
          </mxGeometry>
        </mxCell>
        <mxCell id="NoP4yANCG9PIDfPH0jD4-270" value="&lt;span style=&quot;color: rgb(0, 0, 0);&quot;&gt;motorcycleId&lt;/span&gt;" style="shape=partialRectangle;html=1;whiteSpace=wrap;connectable=0;strokeColor=#666666;overflow=hidden;fillColor=#f5f5f5;top=0;left=0;bottom=0;right=0;pointerEvents=1;fontStyle=1;fontSize=13;fontColor=#333333;align=center;" parent="NoP4yANCG9PIDfPH0jD4-268" vertex="1">
          <mxGeometry x="131" width="129" height="30" as="geometry">
            <mxRectangle width="129" height="30" as="alternateBounds" />
          </mxGeometry>
        </mxCell>
        <mxCell id="NoP4yANCG9PIDfPH0jD4-277" value="&lt;span style=&quot;color: rgb(0, 0, 0);&quot;&gt;makeId&lt;/span&gt;" style="shape=partialRectangle;html=1;whiteSpace=wrap;connectable=0;strokeColor=#666666;overflow=hidden;fillColor=#f5f5f5;top=0;left=0;bottom=0;right=0;pointerEvents=1;fontStyle=1;fontSize=13;fontColor=#333333;align=center;" parent="NoP4yANCG9PIDfPH0jD4-268" vertex="1">
          <mxGeometry x="260" width="131" height="30" as="geometry">
            <mxRectangle width="131" height="30" as="alternateBounds" />
          </mxGeometry>
        </mxCell>
        <mxCell id="NoP4yANCG9PIDfPH0jD4-271" value="" style="shape=tableRow;horizontal=0;startSize=0;swimlaneHead=0;swimlaneBody=0;strokeColor=inherit;top=0;left=0;bottom=0;right=0;collapsible=0;dropTarget=0;fillColor=none;points=[[0,0.5],[1,0.5]];portConstraint=eastwest;" parent="NoP4yANCG9PIDfPH0jD4-267" vertex="1">
          <mxGeometry y="30" width="391" height="40" as="geometry" />
        </mxCell>
        <mxCell id="NoP4yANCG9PIDfPH0jD4-272" value="" style="shape=partialRectangle;html=1;whiteSpace=wrap;connectable=0;strokeColor=inherit;overflow=hidden;fillColor=none;top=0;left=0;bottom=0;right=0;pointerEvents=1;" parent="NoP4yANCG9PIDfPH0jD4-271" vertex="1">
          <mxGeometry width="131" height="40" as="geometry">
            <mxRectangle width="131" height="40" as="alternateBounds" />
          </mxGeometry>
        </mxCell>
        <mxCell id="NoP4yANCG9PIDfPH0jD4-273" value="" style="shape=partialRectangle;html=1;whiteSpace=wrap;connectable=0;strokeColor=inherit;overflow=hidden;fillColor=none;top=0;left=0;bottom=0;right=0;pointerEvents=1;" parent="NoP4yANCG9PIDfPH0jD4-271" vertex="1">
          <mxGeometry x="131" width="129" height="40" as="geometry">
            <mxRectangle width="129" height="40" as="alternateBounds" />
          </mxGeometry>
        </mxCell>
        <mxCell id="NoP4yANCG9PIDfPH0jD4-278" style="shape=partialRectangle;html=1;whiteSpace=wrap;connectable=0;strokeColor=inherit;overflow=hidden;fillColor=none;top=0;left=0;bottom=0;right=0;pointerEvents=1;" parent="NoP4yANCG9PIDfPH0jD4-271" vertex="1">
          <mxGeometry x="260" width="131" height="40" as="geometry">
            <mxRectangle width="131" height="40" as="alternateBounds" />
          </mxGeometry>
        </mxCell>
        <mxCell id="NoP4yANCG9PIDfPH0jD4-274" value="" style="shape=tableRow;horizontal=0;startSize=0;swimlaneHead=0;swimlaneBody=0;strokeColor=inherit;top=0;left=0;bottom=0;right=0;collapsible=0;dropTarget=0;fillColor=none;points=[[0,0.5],[1,0.5]];portConstraint=eastwest;" parent="NoP4yANCG9PIDfPH0jD4-267" vertex="1">
          <mxGeometry y="70" width="391" height="40" as="geometry" />
        </mxCell>
        <mxCell id="NoP4yANCG9PIDfPH0jD4-275" value="" style="shape=partialRectangle;html=1;whiteSpace=wrap;connectable=0;strokeColor=inherit;overflow=hidden;fillColor=none;top=0;left=0;bottom=0;right=0;pointerEvents=1;" parent="NoP4yANCG9PIDfPH0jD4-274" vertex="1">
          <mxGeometry width="131" height="40" as="geometry">
            <mxRectangle width="131" height="40" as="alternateBounds" />
          </mxGeometry>
        </mxCell>
        <mxCell id="NoP4yANCG9PIDfPH0jD4-276" value="" style="shape=partialRectangle;html=1;whiteSpace=wrap;connectable=0;strokeColor=inherit;overflow=hidden;fillColor=none;top=0;left=0;bottom=0;right=0;pointerEvents=1;" parent="NoP4yANCG9PIDfPH0jD4-274" vertex="1">
          <mxGeometry x="131" width="129" height="40" as="geometry">
            <mxRectangle width="129" height="40" as="alternateBounds" />
          </mxGeometry>
        </mxCell>
        <mxCell id="NoP4yANCG9PIDfPH0jD4-279" style="shape=partialRectangle;html=1;whiteSpace=wrap;connectable=0;strokeColor=inherit;overflow=hidden;fillColor=none;top=0;left=0;bottom=0;right=0;pointerEvents=1;" parent="NoP4yANCG9PIDfPH0jD4-274" vertex="1">
          <mxGeometry x="260" width="131" height="40" as="geometry">
            <mxRectangle width="131" height="40" as="alternateBounds" />
          </mxGeometry>
        </mxCell>
        <mxCell id="NoP4yANCG9PIDfPH0jD4-285" value="" style="shape=table;startSize=0;container=1;collapsible=0;childLayout=tableLayout;" parent="1" vertex="1">
          <mxGeometry x="-540" y="520" width="391" height="110" as="geometry" />
        </mxCell>
        <mxCell id="NoP4yANCG9PIDfPH0jD4-286" value="" style="shape=tableRow;horizontal=0;startSize=0;swimlaneHead=0;swimlaneBody=0;strokeColor=inherit;top=0;left=0;bottom=0;right=0;collapsible=0;dropTarget=0;fillColor=none;points=[[0,0.5],[1,0.5]];portConstraint=eastwest;" parent="NoP4yANCG9PIDfPH0jD4-285" vertex="1">
          <mxGeometry width="391" height="30" as="geometry" />
        </mxCell>
        <mxCell id="NoP4yANCG9PIDfPH0jD4-287" value="&lt;span style=&quot;color: rgb(0, 0, 0);&quot;&gt;BrakesID&lt;/span&gt;" style="shape=partialRectangle;html=1;whiteSpace=wrap;connectable=0;strokeColor=#666666;overflow=hidden;fillColor=#B3B3B3;top=0;left=0;bottom=0;right=0;pointerEvents=1;fontStyle=1;fontSize=13;fontColor=#333333;align=center;" parent="NoP4yANCG9PIDfPH0jD4-286" vertex="1">
          <mxGeometry width="131" height="30" as="geometry">
            <mxRectangle width="131" height="30" as="alternateBounds" />
          </mxGeometry>
        </mxCell>
        <mxCell id="NoP4yANCG9PIDfPH0jD4-288" value="&lt;span style=&quot;color: rgb(0, 0, 0);&quot;&gt;frontBrakes&lt;/span&gt;" style="shape=partialRectangle;html=1;whiteSpace=wrap;connectable=0;strokeColor=#666666;overflow=hidden;fillColor=#f5f5f5;top=0;left=0;bottom=0;right=0;pointerEvents=1;fontStyle=1;fontSize=13;fontColor=#333333;align=center;" parent="NoP4yANCG9PIDfPH0jD4-286" vertex="1">
          <mxGeometry x="131" width="130" height="30" as="geometry">
            <mxRectangle width="130" height="30" as="alternateBounds" />
          </mxGeometry>
        </mxCell>
        <mxCell id="NoP4yANCG9PIDfPH0jD4-289" value="&lt;span style=&quot;color: rgb(0, 0, 0);&quot;&gt;rearBrakes&lt;/span&gt;" style="shape=partialRectangle;html=1;whiteSpace=wrap;connectable=0;strokeColor=#666666;overflow=hidden;fillColor=#f5f5f5;top=0;left=0;bottom=0;right=0;pointerEvents=1;fontStyle=1;fontSize=13;fontColor=#333333;align=center;" parent="NoP4yANCG9PIDfPH0jD4-286" vertex="1">
          <mxGeometry x="261" width="130" height="30" as="geometry">
            <mxRectangle width="130" height="30" as="alternateBounds" />
          </mxGeometry>
        </mxCell>
        <mxCell id="NoP4yANCG9PIDfPH0jD4-290" value="" style="shape=tableRow;horizontal=0;startSize=0;swimlaneHead=0;swimlaneBody=0;strokeColor=inherit;top=0;left=0;bottom=0;right=0;collapsible=0;dropTarget=0;fillColor=none;points=[[0,0.5],[1,0.5]];portConstraint=eastwest;" parent="NoP4yANCG9PIDfPH0jD4-285" vertex="1">
          <mxGeometry y="30" width="391" height="40" as="geometry" />
        </mxCell>
        <mxCell id="NoP4yANCG9PIDfPH0jD4-291" value="" style="shape=partialRectangle;html=1;whiteSpace=wrap;connectable=0;strokeColor=inherit;overflow=hidden;fillColor=none;top=0;left=0;bottom=0;right=0;pointerEvents=1;" parent="NoP4yANCG9PIDfPH0jD4-290" vertex="1">
          <mxGeometry width="131" height="40" as="geometry">
            <mxRectangle width="131" height="40" as="alternateBounds" />
          </mxGeometry>
        </mxCell>
        <mxCell id="NoP4yANCG9PIDfPH0jD4-292" value="" style="shape=partialRectangle;html=1;whiteSpace=wrap;connectable=0;strokeColor=inherit;overflow=hidden;fillColor=none;top=0;left=0;bottom=0;right=0;pointerEvents=1;" parent="NoP4yANCG9PIDfPH0jD4-290" vertex="1">
          <mxGeometry x="131" width="130" height="40" as="geometry">
            <mxRectangle width="130" height="40" as="alternateBounds" />
          </mxGeometry>
        </mxCell>
        <mxCell id="NoP4yANCG9PIDfPH0jD4-293" style="shape=partialRectangle;html=1;whiteSpace=wrap;connectable=0;strokeColor=inherit;overflow=hidden;fillColor=none;top=0;left=0;bottom=0;right=0;pointerEvents=1;" parent="NoP4yANCG9PIDfPH0jD4-290" vertex="1">
          <mxGeometry x="261" width="130" height="40" as="geometry">
            <mxRectangle width="130" height="40" as="alternateBounds" />
          </mxGeometry>
        </mxCell>
        <mxCell id="NoP4yANCG9PIDfPH0jD4-294" value="" style="shape=tableRow;horizontal=0;startSize=0;swimlaneHead=0;swimlaneBody=0;strokeColor=inherit;top=0;left=0;bottom=0;right=0;collapsible=0;dropTarget=0;fillColor=none;points=[[0,0.5],[1,0.5]];portConstraint=eastwest;" parent="NoP4yANCG9PIDfPH0jD4-285" vertex="1">
          <mxGeometry y="70" width="391" height="40" as="geometry" />
        </mxCell>
        <mxCell id="NoP4yANCG9PIDfPH0jD4-295" value="" style="shape=partialRectangle;html=1;whiteSpace=wrap;connectable=0;strokeColor=inherit;overflow=hidden;fillColor=none;top=0;left=0;bottom=0;right=0;pointerEvents=1;" parent="NoP4yANCG9PIDfPH0jD4-294" vertex="1">
          <mxGeometry width="131" height="40" as="geometry">
            <mxRectangle width="131" height="40" as="alternateBounds" />
          </mxGeometry>
        </mxCell>
        <mxCell id="NoP4yANCG9PIDfPH0jD4-296" value="" style="shape=partialRectangle;html=1;whiteSpace=wrap;connectable=0;strokeColor=inherit;overflow=hidden;fillColor=none;top=0;left=0;bottom=0;right=0;pointerEvents=1;" parent="NoP4yANCG9PIDfPH0jD4-294" vertex="1">
          <mxGeometry x="131" width="130" height="40" as="geometry">
            <mxRectangle width="130" height="40" as="alternateBounds" />
          </mxGeometry>
        </mxCell>
        <mxCell id="NoP4yANCG9PIDfPH0jD4-297" style="shape=partialRectangle;html=1;whiteSpace=wrap;connectable=0;strokeColor=inherit;overflow=hidden;fillColor=none;top=0;left=0;bottom=0;right=0;pointerEvents=1;" parent="NoP4yANCG9PIDfPH0jD4-294" vertex="1">
          <mxGeometry x="261" width="130" height="40" as="geometry">
            <mxRectangle width="130" height="40" as="alternateBounds" />
          </mxGeometry>
        </mxCell>
        <mxCell id="NoP4yANCG9PIDfPH0jD4-299" value="" style="shape=table;startSize=0;container=1;collapsible=0;childLayout=tableLayout;" parent="1" vertex="1">
          <mxGeometry x="-1755" y="660" width="1330" height="110" as="geometry" />
        </mxCell>
        <mxCell id="NoP4yANCG9PIDfPH0jD4-300" value="" style="shape=tableRow;horizontal=0;startSize=0;swimlaneHead=0;swimlaneBody=0;strokeColor=inherit;top=0;left=0;bottom=0;right=0;collapsible=0;dropTarget=0;fillColor=none;points=[[0,0.5],[1,0.5]];portConstraint=eastwest;" parent="NoP4yANCG9PIDfPH0jD4-299" vertex="1">
          <mxGeometry width="1330" height="30" as="geometry" />
        </mxCell>
        <mxCell id="NoP4yANCG9PIDfPH0jD4-301" value="&lt;span style=&quot;color: rgb(0, 0, 0);&quot;&gt;EngineID&lt;/span&gt;" style="shape=partialRectangle;html=1;whiteSpace=wrap;connectable=0;overflow=hidden;top=0;left=0;bottom=0;right=0;pointerEvents=1;fontStyle=1;fontSize=13;align=center;verticalAlign=middle;strokeWidth=1;fillColor=#B3B3B3;fontColor=#333333;strokeColor=#666666;" parent="NoP4yANCG9PIDfPH0jD4-300" vertex="1">
          <mxGeometry width="105" height="30" as="geometry">
            <mxRectangle width="105" height="30" as="alternateBounds" />
          </mxGeometry>
        </mxCell>
        <mxCell id="NoP4yANCG9PIDfPH0jD4-302" value="&lt;span style=&quot;color: rgb(0, 0, 0);&quot;&gt;displacement&lt;/span&gt;" style="shape=partialRectangle;html=1;whiteSpace=wrap;connectable=0;strokeColor=inherit;overflow=hidden;fillColor=#f5f5f5;top=0;left=0;bottom=0;right=0;pointerEvents=1;fontStyle=1;fontSize=13;fontColor=#333333;align=center;verticalAlign=middle;strokeWidth=1;" parent="NoP4yANCG9PIDfPH0jD4-300" vertex="1">
          <mxGeometry x="105" width="115" height="30" as="geometry">
            <mxRectangle width="115" height="30" as="alternateBounds" />
          </mxGeometry>
        </mxCell>
        <mxCell id="NoP4yANCG9PIDfPH0jD4-303" value="&lt;span style=&quot;color: rgb(0, 0, 0);&quot;&gt;engineType&lt;/span&gt;" style="shape=partialRectangle;html=1;whiteSpace=wrap;connectable=0;strokeColor=inherit;overflow=hidden;fillColor=#f5f5f5;top=0;left=0;bottom=0;right=0;pointerEvents=1;fontStyle=1;fontSize=13;fontColor=#333333;align=center;verticalAlign=middle;strokeWidth=1;" parent="NoP4yANCG9PIDfPH0jD4-300" vertex="1">
          <mxGeometry x="220" width="100" height="30" as="geometry">
            <mxRectangle width="100" height="30" as="alternateBounds" />
          </mxGeometry>
        </mxCell>
        <mxCell id="NoP4yANCG9PIDfPH0jD4-304" value="&lt;span style=&quot;color: rgb(0, 0, 0);&quot;&gt;compression&lt;/span&gt;" style="shape=partialRectangle;html=1;whiteSpace=wrap;connectable=0;strokeColor=inherit;overflow=hidden;fillColor=#f5f5f5;top=0;left=0;bottom=0;right=0;pointerEvents=1;fontStyle=1;fontSize=13;fontColor=#333333;align=center;verticalAlign=middle;strokeWidth=1;" parent="NoP4yANCG9PIDfPH0jD4-300" vertex="1">
          <mxGeometry x="320" width="112" height="30" as="geometry">
            <mxRectangle width="112" height="30" as="alternateBounds" />
          </mxGeometry>
        </mxCell>
        <mxCell id="NoP4yANCG9PIDfPH0jD4-305" value="&lt;span style=&quot;color: rgb(0, 0, 0);&quot;&gt;boreStroke&lt;/span&gt;" style="shape=partialRectangle;html=1;whiteSpace=wrap;connectable=0;strokeColor=inherit;overflow=hidden;fillColor=#f5f5f5;top=0;left=0;bottom=0;right=0;pointerEvents=1;fontStyle=1;fontSize=13;fontColor=#333333;align=center;verticalAlign=middle;strokeWidth=1;" parent="NoP4yANCG9PIDfPH0jD4-300" vertex="1">
          <mxGeometry x="432" width="98" height="30" as="geometry">
            <mxRectangle width="98" height="30" as="alternateBounds" />
          </mxGeometry>
        </mxCell>
        <mxCell id="NoP4yANCG9PIDfPH0jD4-306" value="&lt;span style=&quot;color: rgb(0, 0, 0);&quot;&gt;valvesPerCylinder&lt;/span&gt;" style="shape=partialRectangle;html=1;whiteSpace=wrap;connectable=0;strokeColor=inherit;overflow=hidden;fillColor=#f5f5f5;top=0;left=0;bottom=0;right=0;pointerEvents=1;fontStyle=1;fontSize=13;fontColor=#333333;align=center;verticalAlign=middle;strokeWidth=1;" parent="NoP4yANCG9PIDfPH0jD4-300" vertex="1">
          <mxGeometry x="530" width="120" height="30" as="geometry">
            <mxRectangle width="120" height="30" as="alternateBounds" />
          </mxGeometry>
        </mxCell>
        <mxCell id="NoP4yANCG9PIDfPH0jD4-307" value="&lt;span style=&quot;color: rgb(0, 0, 0);&quot;&gt;fuelSystem&lt;/span&gt;" style="shape=partialRectangle;html=1;whiteSpace=wrap;connectable=0;strokeColor=inherit;overflow=hidden;fillColor=#f5f5f5;top=0;left=0;bottom=0;right=0;pointerEvents=1;fontStyle=1;fontSize=13;fontColor=#333333;align=center;verticalAlign=middle;strokeWidth=1;" parent="NoP4yANCG9PIDfPH0jD4-300" vertex="1">
          <mxGeometry x="650" width="100" height="30" as="geometry">
            <mxRectangle width="100" height="30" as="alternateBounds" />
          </mxGeometry>
        </mxCell>
        <mxCell id="NoP4yANCG9PIDfPH0jD4-308" value="&lt;span style=&quot;color: rgb(0, 0, 0);&quot;&gt;fuelControl&lt;/span&gt;" style="shape=partialRectangle;html=1;whiteSpace=wrap;connectable=0;strokeColor=inherit;overflow=hidden;fillColor=#f5f5f5;top=0;left=0;bottom=0;right=0;pointerEvents=1;fontStyle=1;fontSize=13;fontColor=#333333;align=center;verticalAlign=middle;strokeWidth=1;" parent="NoP4yANCG9PIDfPH0jD4-300" vertex="1">
          <mxGeometry x="750" width="90" height="30" as="geometry">
            <mxRectangle width="90" height="30" as="alternateBounds" />
          </mxGeometry>
        </mxCell>
        <mxCell id="NoP4yANCG9PIDfPH0jD4-309" value="&lt;span style=&quot;color: rgb(0, 0, 0);&quot;&gt;lubrication&lt;/span&gt;" style="shape=partialRectangle;html=1;whiteSpace=wrap;connectable=0;strokeColor=inherit;overflow=hidden;fillColor=#f5f5f5;top=0;left=0;bottom=0;right=0;pointerEvents=1;fontStyle=1;fontSize=13;fontColor=#333333;align=center;verticalAlign=middle;strokeWidth=1;" parent="NoP4yANCG9PIDfPH0jD4-300" vertex="1">
          <mxGeometry x="840" width="80" height="30" as="geometry">
            <mxRectangle width="80" height="30" as="alternateBounds" />
          </mxGeometry>
        </mxCell>
        <mxCell id="NoP4yANCG9PIDfPH0jD4-310" value="&lt;span style=&quot;color: rgb(0, 0, 0);&quot;&gt;cooling&lt;/span&gt;" style="shape=partialRectangle;html=1;whiteSpace=wrap;connectable=0;strokeColor=inherit;overflow=hidden;fillColor=#f5f5f5;top=0;left=0;bottom=0;right=0;pointerEvents=1;fontStyle=1;fontSize=13;fontColor=#333333;align=center;verticalAlign=middle;strokeWidth=1;" parent="NoP4yANCG9PIDfPH0jD4-300" vertex="1">
          <mxGeometry x="920" width="70" height="30" as="geometry">
            <mxRectangle width="70" height="30" as="alternateBounds" />
          </mxGeometry>
        </mxCell>
        <mxCell id="NoP4yANCG9PIDfPH0jD4-333" value="&lt;span style=&quot;color: rgb(0, 0, 0);&quot;&gt;gearbox&lt;/span&gt;" style="shape=partialRectangle;html=1;whiteSpace=wrap;connectable=0;strokeColor=inherit;overflow=hidden;fillColor=#f5f5f5;top=0;left=0;bottom=0;right=0;pointerEvents=1;fontStyle=1;fontSize=13;fontColor=#333333;align=center;verticalAlign=middle;strokeWidth=1;" parent="NoP4yANCG9PIDfPH0jD4-300" vertex="1">
          <mxGeometry x="990" width="78" height="30" as="geometry">
            <mxRectangle width="78" height="30" as="alternateBounds" />
          </mxGeometry>
        </mxCell>
        <mxCell id="NoP4yANCG9PIDfPH0jD4-336" value="&lt;span style=&quot;color: rgb(0, 0, 0);&quot;&gt;transmission&lt;/span&gt;" style="shape=partialRectangle;html=1;whiteSpace=wrap;connectable=0;strokeColor=inherit;overflow=hidden;fillColor=#f5f5f5;top=0;left=0;bottom=0;right=0;pointerEvents=1;fontStyle=1;fontSize=13;fontColor=#333333;align=center;verticalAlign=middle;strokeWidth=1;" parent="NoP4yANCG9PIDfPH0jD4-300" vertex="1">
          <mxGeometry x="1068" width="102" height="30" as="geometry">
            <mxRectangle width="102" height="30" as="alternateBounds" />
          </mxGeometry>
        </mxCell>
        <mxCell id="NoP4yANCG9PIDfPH0jD4-339" value="&lt;span style=&quot;color: rgb(0, 0, 0);&quot;&gt;clutch&lt;/span&gt;" style="shape=partialRectangle;html=1;whiteSpace=wrap;connectable=0;strokeColor=inherit;overflow=hidden;fillColor=#f5f5f5;top=0;left=0;bottom=0;right=0;pointerEvents=1;fontStyle=1;fontSize=13;fontColor=#333333;align=center;verticalAlign=middle;strokeWidth=1;" parent="NoP4yANCG9PIDfPH0jD4-300" vertex="1">
          <mxGeometry x="1170" width="73" height="30" as="geometry">
            <mxRectangle width="73" height="30" as="alternateBounds" />
          </mxGeometry>
        </mxCell>
        <mxCell id="NoP4yANCG9PIDfPH0jD4-342" value="&lt;span style=&quot;color: rgb(0, 0, 0);&quot;&gt;frame&lt;/span&gt;" style="shape=partialRectangle;html=1;whiteSpace=wrap;connectable=0;strokeColor=inherit;overflow=hidden;fillColor=#f5f5f5;top=0;left=0;bottom=0;right=0;pointerEvents=1;fontStyle=1;fontSize=13;fontColor=#333333;align=center;verticalAlign=middle;strokeWidth=1;" parent="NoP4yANCG9PIDfPH0jD4-300" vertex="1">
          <mxGeometry x="1243" width="87" height="30" as="geometry">
            <mxRectangle width="87" height="30" as="alternateBounds" />
          </mxGeometry>
        </mxCell>
        <mxCell id="NoP4yANCG9PIDfPH0jD4-311" value="" style="shape=tableRow;horizontal=0;startSize=0;swimlaneHead=0;swimlaneBody=0;strokeColor=inherit;top=0;left=0;bottom=0;right=0;collapsible=0;dropTarget=0;fillColor=none;points=[[0,0.5],[1,0.5]];portConstraint=eastwest;" parent="NoP4yANCG9PIDfPH0jD4-299" vertex="1">
          <mxGeometry y="30" width="1330" height="40" as="geometry" />
        </mxCell>
        <mxCell id="NoP4yANCG9PIDfPH0jD4-312" value="" style="shape=partialRectangle;html=1;whiteSpace=wrap;connectable=0;strokeColor=inherit;overflow=hidden;fillColor=none;top=0;left=0;bottom=0;right=0;pointerEvents=1;strokeWidth=1;" parent="NoP4yANCG9PIDfPH0jD4-311" vertex="1">
          <mxGeometry width="105" height="40" as="geometry">
            <mxRectangle width="105" height="40" as="alternateBounds" />
          </mxGeometry>
        </mxCell>
        <mxCell id="NoP4yANCG9PIDfPH0jD4-313" value="" style="shape=partialRectangle;html=1;whiteSpace=wrap;connectable=0;strokeColor=inherit;overflow=hidden;fillColor=none;top=0;left=0;bottom=0;right=0;pointerEvents=1;strokeWidth=1;" parent="NoP4yANCG9PIDfPH0jD4-311" vertex="1">
          <mxGeometry x="105" width="115" height="40" as="geometry">
            <mxRectangle width="115" height="40" as="alternateBounds" />
          </mxGeometry>
        </mxCell>
        <mxCell id="NoP4yANCG9PIDfPH0jD4-314" value="" style="shape=partialRectangle;html=1;whiteSpace=wrap;connectable=0;strokeColor=inherit;overflow=hidden;fillColor=none;top=0;left=0;bottom=0;right=0;pointerEvents=1;strokeWidth=1;" parent="NoP4yANCG9PIDfPH0jD4-311" vertex="1">
          <mxGeometry x="220" width="100" height="40" as="geometry">
            <mxRectangle width="100" height="40" as="alternateBounds" />
          </mxGeometry>
        </mxCell>
        <mxCell id="NoP4yANCG9PIDfPH0jD4-315" value="" style="shape=partialRectangle;html=1;whiteSpace=wrap;connectable=0;strokeColor=inherit;overflow=hidden;fillColor=none;top=0;left=0;bottom=0;right=0;pointerEvents=1;strokeWidth=1;" parent="NoP4yANCG9PIDfPH0jD4-311" vertex="1">
          <mxGeometry x="320" width="112" height="40" as="geometry">
            <mxRectangle width="112" height="40" as="alternateBounds" />
          </mxGeometry>
        </mxCell>
        <mxCell id="NoP4yANCG9PIDfPH0jD4-316" value="" style="shape=partialRectangle;html=1;whiteSpace=wrap;connectable=0;strokeColor=inherit;overflow=hidden;fillColor=none;top=0;left=0;bottom=0;right=0;pointerEvents=1;strokeWidth=1;" parent="NoP4yANCG9PIDfPH0jD4-311" vertex="1">
          <mxGeometry x="432" width="98" height="40" as="geometry">
            <mxRectangle width="98" height="40" as="alternateBounds" />
          </mxGeometry>
        </mxCell>
        <mxCell id="NoP4yANCG9PIDfPH0jD4-317" value="" style="shape=partialRectangle;html=1;whiteSpace=wrap;connectable=0;strokeColor=inherit;overflow=hidden;fillColor=none;top=0;left=0;bottom=0;right=0;pointerEvents=1;strokeWidth=1;" parent="NoP4yANCG9PIDfPH0jD4-311" vertex="1">
          <mxGeometry x="530" width="120" height="40" as="geometry">
            <mxRectangle width="120" height="40" as="alternateBounds" />
          </mxGeometry>
        </mxCell>
        <mxCell id="NoP4yANCG9PIDfPH0jD4-318" style="shape=partialRectangle;html=1;whiteSpace=wrap;connectable=0;strokeColor=inherit;overflow=hidden;fillColor=none;top=0;left=0;bottom=0;right=0;pointerEvents=1;strokeWidth=1;" parent="NoP4yANCG9PIDfPH0jD4-311" vertex="1">
          <mxGeometry x="650" width="100" height="40" as="geometry">
            <mxRectangle width="100" height="40" as="alternateBounds" />
          </mxGeometry>
        </mxCell>
        <mxCell id="NoP4yANCG9PIDfPH0jD4-319" style="shape=partialRectangle;html=1;whiteSpace=wrap;connectable=0;strokeColor=inherit;overflow=hidden;fillColor=none;top=0;left=0;bottom=0;right=0;pointerEvents=1;strokeWidth=1;" parent="NoP4yANCG9PIDfPH0jD4-311" vertex="1">
          <mxGeometry x="750" width="90" height="40" as="geometry">
            <mxRectangle width="90" height="40" as="alternateBounds" />
          </mxGeometry>
        </mxCell>
        <mxCell id="NoP4yANCG9PIDfPH0jD4-320" style="shape=partialRectangle;html=1;whiteSpace=wrap;connectable=0;strokeColor=inherit;overflow=hidden;fillColor=none;top=0;left=0;bottom=0;right=0;pointerEvents=1;strokeWidth=1;" parent="NoP4yANCG9PIDfPH0jD4-311" vertex="1">
          <mxGeometry x="840" width="80" height="40" as="geometry">
            <mxRectangle width="80" height="40" as="alternateBounds" />
          </mxGeometry>
        </mxCell>
        <mxCell id="NoP4yANCG9PIDfPH0jD4-321" style="shape=partialRectangle;html=1;whiteSpace=wrap;connectable=0;strokeColor=inherit;overflow=hidden;fillColor=none;top=0;left=0;bottom=0;right=0;pointerEvents=1;strokeWidth=1;" parent="NoP4yANCG9PIDfPH0jD4-311" vertex="1">
          <mxGeometry x="920" width="70" height="40" as="geometry">
            <mxRectangle width="70" height="40" as="alternateBounds" />
          </mxGeometry>
        </mxCell>
        <mxCell id="NoP4yANCG9PIDfPH0jD4-334" style="shape=partialRectangle;html=1;whiteSpace=wrap;connectable=0;strokeColor=inherit;overflow=hidden;fillColor=none;top=0;left=0;bottom=0;right=0;pointerEvents=1;strokeWidth=1;" parent="NoP4yANCG9PIDfPH0jD4-311" vertex="1">
          <mxGeometry x="990" width="78" height="40" as="geometry">
            <mxRectangle width="78" height="40" as="alternateBounds" />
          </mxGeometry>
        </mxCell>
        <mxCell id="NoP4yANCG9PIDfPH0jD4-337" style="shape=partialRectangle;html=1;whiteSpace=wrap;connectable=0;strokeColor=inherit;overflow=hidden;fillColor=none;top=0;left=0;bottom=0;right=0;pointerEvents=1;strokeWidth=1;" parent="NoP4yANCG9PIDfPH0jD4-311" vertex="1">
          <mxGeometry x="1068" width="102" height="40" as="geometry">
            <mxRectangle width="102" height="40" as="alternateBounds" />
          </mxGeometry>
        </mxCell>
        <mxCell id="NoP4yANCG9PIDfPH0jD4-340" style="shape=partialRectangle;html=1;whiteSpace=wrap;connectable=0;strokeColor=inherit;overflow=hidden;fillColor=none;top=0;left=0;bottom=0;right=0;pointerEvents=1;strokeWidth=1;" parent="NoP4yANCG9PIDfPH0jD4-311" vertex="1">
          <mxGeometry x="1170" width="73" height="40" as="geometry">
            <mxRectangle width="73" height="40" as="alternateBounds" />
          </mxGeometry>
        </mxCell>
        <mxCell id="NoP4yANCG9PIDfPH0jD4-343" style="shape=partialRectangle;html=1;whiteSpace=wrap;connectable=0;strokeColor=inherit;overflow=hidden;fillColor=none;top=0;left=0;bottom=0;right=0;pointerEvents=1;strokeWidth=1;" parent="NoP4yANCG9PIDfPH0jD4-311" vertex="1">
          <mxGeometry x="1243" width="87" height="40" as="geometry">
            <mxRectangle width="87" height="40" as="alternateBounds" />
          </mxGeometry>
        </mxCell>
        <mxCell id="NoP4yANCG9PIDfPH0jD4-322" value="" style="shape=tableRow;horizontal=0;startSize=0;swimlaneHead=0;swimlaneBody=0;strokeColor=inherit;top=0;left=0;bottom=0;right=0;collapsible=0;dropTarget=0;fillColor=none;points=[[0,0.5],[1,0.5]];portConstraint=eastwest;" parent="NoP4yANCG9PIDfPH0jD4-299" vertex="1">
          <mxGeometry y="70" width="1330" height="40" as="geometry" />
        </mxCell>
        <mxCell id="NoP4yANCG9PIDfPH0jD4-323" value="" style="shape=partialRectangle;html=1;whiteSpace=wrap;connectable=0;strokeColor=inherit;overflow=hidden;fillColor=none;top=0;left=0;bottom=0;right=0;pointerEvents=1;strokeWidth=1;" parent="NoP4yANCG9PIDfPH0jD4-322" vertex="1">
          <mxGeometry width="105" height="40" as="geometry">
            <mxRectangle width="105" height="40" as="alternateBounds" />
          </mxGeometry>
        </mxCell>
        <mxCell id="NoP4yANCG9PIDfPH0jD4-324" value="" style="shape=partialRectangle;html=1;whiteSpace=wrap;connectable=0;strokeColor=inherit;overflow=hidden;fillColor=none;top=0;left=0;bottom=0;right=0;pointerEvents=1;strokeWidth=1;" parent="NoP4yANCG9PIDfPH0jD4-322" vertex="1">
          <mxGeometry x="105" width="115" height="40" as="geometry">
            <mxRectangle width="115" height="40" as="alternateBounds" />
          </mxGeometry>
        </mxCell>
        <mxCell id="NoP4yANCG9PIDfPH0jD4-325" value="" style="shape=partialRectangle;html=1;whiteSpace=wrap;connectable=0;strokeColor=inherit;overflow=hidden;fillColor=none;top=0;left=0;bottom=0;right=0;pointerEvents=1;strokeWidth=1;" parent="NoP4yANCG9PIDfPH0jD4-322" vertex="1">
          <mxGeometry x="220" width="100" height="40" as="geometry">
            <mxRectangle width="100" height="40" as="alternateBounds" />
          </mxGeometry>
        </mxCell>
        <mxCell id="NoP4yANCG9PIDfPH0jD4-326" value="" style="shape=partialRectangle;html=1;whiteSpace=wrap;connectable=0;strokeColor=inherit;overflow=hidden;fillColor=none;top=0;left=0;bottom=0;right=0;pointerEvents=1;strokeWidth=1;" parent="NoP4yANCG9PIDfPH0jD4-322" vertex="1">
          <mxGeometry x="320" width="112" height="40" as="geometry">
            <mxRectangle width="112" height="40" as="alternateBounds" />
          </mxGeometry>
        </mxCell>
        <mxCell id="NoP4yANCG9PIDfPH0jD4-327" value="" style="shape=partialRectangle;html=1;whiteSpace=wrap;connectable=0;strokeColor=inherit;overflow=hidden;fillColor=none;top=0;left=0;bottom=0;right=0;pointerEvents=1;strokeWidth=1;" parent="NoP4yANCG9PIDfPH0jD4-322" vertex="1">
          <mxGeometry x="432" width="98" height="40" as="geometry">
            <mxRectangle width="98" height="40" as="alternateBounds" />
          </mxGeometry>
        </mxCell>
        <mxCell id="NoP4yANCG9PIDfPH0jD4-328" value="" style="shape=partialRectangle;html=1;whiteSpace=wrap;connectable=0;strokeColor=inherit;overflow=hidden;fillColor=none;top=0;left=0;bottom=0;right=0;pointerEvents=1;strokeWidth=1;" parent="NoP4yANCG9PIDfPH0jD4-322" vertex="1">
          <mxGeometry x="530" width="120" height="40" as="geometry">
            <mxRectangle width="120" height="40" as="alternateBounds" />
          </mxGeometry>
        </mxCell>
        <mxCell id="NoP4yANCG9PIDfPH0jD4-329" style="shape=partialRectangle;html=1;whiteSpace=wrap;connectable=0;strokeColor=inherit;overflow=hidden;fillColor=none;top=0;left=0;bottom=0;right=0;pointerEvents=1;strokeWidth=1;" parent="NoP4yANCG9PIDfPH0jD4-322" vertex="1">
          <mxGeometry x="650" width="100" height="40" as="geometry">
            <mxRectangle width="100" height="40" as="alternateBounds" />
          </mxGeometry>
        </mxCell>
        <mxCell id="NoP4yANCG9PIDfPH0jD4-330" style="shape=partialRectangle;html=1;whiteSpace=wrap;connectable=0;strokeColor=inherit;overflow=hidden;fillColor=none;top=0;left=0;bottom=0;right=0;pointerEvents=1;strokeWidth=1;" parent="NoP4yANCG9PIDfPH0jD4-322" vertex="1">
          <mxGeometry x="750" width="90" height="40" as="geometry">
            <mxRectangle width="90" height="40" as="alternateBounds" />
          </mxGeometry>
        </mxCell>
        <mxCell id="NoP4yANCG9PIDfPH0jD4-331" style="shape=partialRectangle;html=1;whiteSpace=wrap;connectable=0;strokeColor=inherit;overflow=hidden;fillColor=none;top=0;left=0;bottom=0;right=0;pointerEvents=1;strokeWidth=1;" parent="NoP4yANCG9PIDfPH0jD4-322" vertex="1">
          <mxGeometry x="840" width="80" height="40" as="geometry">
            <mxRectangle width="80" height="40" as="alternateBounds" />
          </mxGeometry>
        </mxCell>
        <mxCell id="NoP4yANCG9PIDfPH0jD4-332" style="shape=partialRectangle;html=1;whiteSpace=wrap;connectable=0;strokeColor=inherit;overflow=hidden;fillColor=none;top=0;left=0;bottom=0;right=0;pointerEvents=1;strokeWidth=1;" parent="NoP4yANCG9PIDfPH0jD4-322" vertex="1">
          <mxGeometry x="920" width="70" height="40" as="geometry">
            <mxRectangle width="70" height="40" as="alternateBounds" />
          </mxGeometry>
        </mxCell>
        <mxCell id="NoP4yANCG9PIDfPH0jD4-335" style="shape=partialRectangle;html=1;whiteSpace=wrap;connectable=0;strokeColor=inherit;overflow=hidden;fillColor=none;top=0;left=0;bottom=0;right=0;pointerEvents=1;strokeWidth=1;" parent="NoP4yANCG9PIDfPH0jD4-322" vertex="1">
          <mxGeometry x="990" width="78" height="40" as="geometry">
            <mxRectangle width="78" height="40" as="alternateBounds" />
          </mxGeometry>
        </mxCell>
        <mxCell id="NoP4yANCG9PIDfPH0jD4-338" style="shape=partialRectangle;html=1;whiteSpace=wrap;connectable=0;strokeColor=inherit;overflow=hidden;fillColor=none;top=0;left=0;bottom=0;right=0;pointerEvents=1;strokeWidth=1;" parent="NoP4yANCG9PIDfPH0jD4-322" vertex="1">
          <mxGeometry x="1068" width="102" height="40" as="geometry">
            <mxRectangle width="102" height="40" as="alternateBounds" />
          </mxGeometry>
        </mxCell>
        <mxCell id="NoP4yANCG9PIDfPH0jD4-341" style="shape=partialRectangle;html=1;whiteSpace=wrap;connectable=0;strokeColor=inherit;overflow=hidden;fillColor=none;top=0;left=0;bottom=0;right=0;pointerEvents=1;strokeWidth=1;" parent="NoP4yANCG9PIDfPH0jD4-322" vertex="1">
          <mxGeometry x="1170" width="73" height="40" as="geometry">
            <mxRectangle width="73" height="40" as="alternateBounds" />
          </mxGeometry>
        </mxCell>
        <mxCell id="NoP4yANCG9PIDfPH0jD4-344" style="shape=partialRectangle;html=1;whiteSpace=wrap;connectable=0;strokeColor=inherit;overflow=hidden;fillColor=none;top=0;left=0;bottom=0;right=0;pointerEvents=1;strokeWidth=1;" parent="NoP4yANCG9PIDfPH0jD4-322" vertex="1">
          <mxGeometry x="1243" width="87" height="40" as="geometry">
            <mxRectangle width="87" height="40" as="alternateBounds" />
          </mxGeometry>
        </mxCell>
        <mxCell id="NoP4yANCG9PIDfPH0jD4-345" value="" style="shape=table;startSize=0;container=1;collapsible=0;childLayout=tableLayout;" parent="1" vertex="1">
          <mxGeometry x="-1750" y="470" width="1040" height="110" as="geometry" />
        </mxCell>
        <mxCell id="NoP4yANCG9PIDfPH0jD4-346" value="" style="shape=tableRow;horizontal=0;startSize=0;swimlaneHead=0;swimlaneBody=0;strokeColor=inherit;top=0;left=0;bottom=0;right=0;collapsible=0;dropTarget=0;fillColor=none;points=[[0,0.5],[1,0.5]];portConstraint=eastwest;" parent="NoP4yANCG9PIDfPH0jD4-345" vertex="1">
          <mxGeometry width="1040" height="30" as="geometry" />
        </mxCell>
        <mxCell id="NoP4yANCG9PIDfPH0jD4-347" value="&lt;span style=&quot;color: rgb(0, 0, 0);&quot;&gt;MotorcycleID&lt;/span&gt;" style="shape=partialRectangle;html=1;whiteSpace=wrap;connectable=0;strokeColor=inherit;overflow=hidden;fillColor=#B3B3B3;top=0;left=0;bottom=0;right=0;pointerEvents=1;fontStyle=1;fontSize=13;fontColor=#333333;align=center;verticalAlign=middle;strokeWidth=1;" parent="NoP4yANCG9PIDfPH0jD4-346" vertex="1">
          <mxGeometry width="111" height="30" as="geometry">
            <mxRectangle width="111" height="30" as="alternateBounds" />
          </mxGeometry>
        </mxCell>
        <mxCell id="NoP4yANCG9PIDfPH0jD4-348" value="&lt;span style=&quot;color: rgb(0, 0, 0);&quot;&gt;makeId&lt;/span&gt;" style="shape=partialRectangle;html=1;whiteSpace=wrap;connectable=0;strokeColor=inherit;overflow=hidden;fillColor=#f5f5f5;top=0;left=0;bottom=0;right=0;pointerEvents=1;fontStyle=1;fontSize=13;fontColor=#333333;align=center;verticalAlign=middle;strokeWidth=1;" parent="NoP4yANCG9PIDfPH0jD4-346" vertex="1">
          <mxGeometry x="111" width="99" height="30" as="geometry">
            <mxRectangle width="99" height="30" as="alternateBounds" />
          </mxGeometry>
        </mxCell>
        <mxCell id="NoP4yANCG9PIDfPH0jD4-349" value="&lt;span style=&quot;color: rgb(0, 0, 0);&quot;&gt;model&lt;/span&gt;" style="shape=partialRectangle;html=1;whiteSpace=wrap;connectable=0;strokeColor=inherit;overflow=hidden;fillColor=#f5f5f5;top=0;left=0;bottom=0;right=0;pointerEvents=1;fontStyle=1;fontSize=13;fontColor=#333333;align=center;verticalAlign=middle;strokeWidth=1;" parent="NoP4yANCG9PIDfPH0jD4-346" vertex="1">
          <mxGeometry x="210" width="110" height="30" as="geometry">
            <mxRectangle width="110" height="30" as="alternateBounds" />
          </mxGeometry>
        </mxCell>
        <mxCell id="NoP4yANCG9PIDfPH0jD4-350" value="&lt;span style=&quot;color: rgb(0, 0, 0);&quot;&gt;year&lt;/span&gt;" style="shape=partialRectangle;html=1;whiteSpace=wrap;connectable=0;strokeColor=inherit;overflow=hidden;fillColor=#f5f5f5;top=0;left=0;bottom=0;right=0;pointerEvents=1;fontStyle=1;fontSize=13;fontColor=#333333;align=center;verticalAlign=middle;strokeWidth=1;" parent="NoP4yANCG9PIDfPH0jD4-346" vertex="1">
          <mxGeometry x="320" width="110" height="30" as="geometry">
            <mxRectangle width="110" height="30" as="alternateBounds" />
          </mxGeometry>
        </mxCell>
        <mxCell id="NoP4yANCG9PIDfPH0jD4-351" value="&lt;span style=&quot;color: rgb(0, 0, 0);&quot;&gt;type&lt;/span&gt;" style="shape=partialRectangle;html=1;whiteSpace=wrap;connectable=0;strokeColor=inherit;overflow=hidden;fillColor=#f5f5f5;top=0;left=0;bottom=0;right=0;pointerEvents=1;fontStyle=1;fontSize=13;fontColor=#333333;align=center;verticalAlign=middle;strokeWidth=1;" parent="NoP4yANCG9PIDfPH0jD4-346" vertex="1">
          <mxGeometry x="430" width="100" height="30" as="geometry">
            <mxRectangle width="100" height="30" as="alternateBounds" />
          </mxGeometry>
        </mxCell>
        <mxCell id="NoP4yANCG9PIDfPH0jD4-352" value="&lt;span style=&quot;color: rgb(0, 0, 0);&quot;&gt;engineId&lt;/span&gt;" style="shape=partialRectangle;html=1;whiteSpace=wrap;connectable=0;strokeColor=inherit;overflow=hidden;fillColor=#f5f5f5;top=0;left=0;bottom=0;right=0;pointerEvents=1;fontStyle=1;fontSize=13;fontColor=#333333;align=center;verticalAlign=middle;strokeWidth=1;" parent="NoP4yANCG9PIDfPH0jD4-346" vertex="1">
          <mxGeometry x="530" width="110" height="30" as="geometry">
            <mxRectangle width="110" height="30" as="alternateBounds" />
          </mxGeometry>
        </mxCell>
        <mxCell id="NoP4yANCG9PIDfPH0jD4-353" value="&lt;span style=&quot;color: rgb(0, 0, 0);&quot;&gt;performanceId&lt;/span&gt;" style="shape=partialRectangle;html=1;whiteSpace=wrap;connectable=0;strokeColor=inherit;overflow=hidden;fillColor=#f5f5f5;top=0;left=0;bottom=0;right=0;pointerEvents=1;fontStyle=1;fontSize=13;fontColor=#333333;align=center;verticalAlign=middle;strokeWidth=1;" parent="NoP4yANCG9PIDfPH0jD4-346" vertex="1">
          <mxGeometry x="640" width="120" height="30" as="geometry">
            <mxRectangle width="120" height="30" as="alternateBounds" />
          </mxGeometry>
        </mxCell>
        <mxCell id="NoP4yANCG9PIDfPH0jD4-354" value="&lt;span style=&quot;color: rgb(0, 0, 0);&quot;&gt;dimensionsId&lt;/span&gt;" style="shape=partialRectangle;html=1;whiteSpace=wrap;connectable=0;strokeColor=inherit;overflow=hidden;fillColor=#f5f5f5;top=0;left=0;bottom=0;right=0;pointerEvents=1;fontStyle=1;fontSize=13;fontColor=#333333;align=center;verticalAlign=middle;strokeWidth=1;" parent="NoP4yANCG9PIDfPH0jD4-346" vertex="1">
          <mxGeometry x="760" width="95" height="30" as="geometry">
            <mxRectangle width="95" height="30" as="alternateBounds" />
          </mxGeometry>
        </mxCell>
        <mxCell id="NoP4yANCG9PIDfPH0jD4-355" value="&lt;span style=&quot;color: rgb(0, 0, 0);&quot;&gt;suspensionId&lt;/span&gt;" style="shape=partialRectangle;html=1;whiteSpace=wrap;connectable=0;strokeColor=inherit;overflow=hidden;fillColor=#f5f5f5;top=0;left=0;bottom=0;right=0;pointerEvents=1;fontStyle=1;fontSize=13;fontColor=#333333;align=center;verticalAlign=middle;strokeWidth=1;" parent="NoP4yANCG9PIDfPH0jD4-346" vertex="1">
          <mxGeometry x="855" width="93" height="30" as="geometry">
            <mxRectangle width="93" height="30" as="alternateBounds" />
          </mxGeometry>
        </mxCell>
        <mxCell id="NoP4yANCG9PIDfPH0jD4-356" value="&lt;span style=&quot;color: rgb(0, 0, 0);&quot;&gt;brakesId&lt;/span&gt;" style="shape=partialRectangle;html=1;whiteSpace=wrap;connectable=0;strokeColor=inherit;overflow=hidden;fillColor=#f5f5f5;top=0;left=0;bottom=0;right=0;pointerEvents=1;fontStyle=1;fontSize=13;fontColor=#333333;align=center;verticalAlign=middle;strokeWidth=1;" parent="NoP4yANCG9PIDfPH0jD4-346" vertex="1">
          <mxGeometry x="948" width="92" height="30" as="geometry">
            <mxRectangle width="92" height="30" as="alternateBounds" />
          </mxGeometry>
        </mxCell>
        <mxCell id="NoP4yANCG9PIDfPH0jD4-357" value="" style="shape=tableRow;horizontal=0;startSize=0;swimlaneHead=0;swimlaneBody=0;strokeColor=inherit;top=0;left=0;bottom=0;right=0;collapsible=0;dropTarget=0;fillColor=none;points=[[0,0.5],[1,0.5]];portConstraint=eastwest;" parent="NoP4yANCG9PIDfPH0jD4-345" vertex="1">
          <mxGeometry y="30" width="1040" height="40" as="geometry" />
        </mxCell>
        <mxCell id="NoP4yANCG9PIDfPH0jD4-358" value="" style="shape=partialRectangle;html=1;whiteSpace=wrap;connectable=0;strokeColor=inherit;overflow=hidden;fillColor=none;top=0;left=0;bottom=0;right=0;pointerEvents=1;strokeWidth=1;" parent="NoP4yANCG9PIDfPH0jD4-357" vertex="1">
          <mxGeometry width="111" height="40" as="geometry">
            <mxRectangle width="111" height="40" as="alternateBounds" />
          </mxGeometry>
        </mxCell>
        <mxCell id="NoP4yANCG9PIDfPH0jD4-359" value="" style="shape=partialRectangle;html=1;whiteSpace=wrap;connectable=0;strokeColor=inherit;overflow=hidden;fillColor=none;top=0;left=0;bottom=0;right=0;pointerEvents=1;strokeWidth=1;" parent="NoP4yANCG9PIDfPH0jD4-357" vertex="1">
          <mxGeometry x="111" width="99" height="40" as="geometry">
            <mxRectangle width="99" height="40" as="alternateBounds" />
          </mxGeometry>
        </mxCell>
        <mxCell id="NoP4yANCG9PIDfPH0jD4-360" value="" style="shape=partialRectangle;html=1;whiteSpace=wrap;connectable=0;strokeColor=inherit;overflow=hidden;fillColor=none;top=0;left=0;bottom=0;right=0;pointerEvents=1;strokeWidth=1;" parent="NoP4yANCG9PIDfPH0jD4-357" vertex="1">
          <mxGeometry x="210" width="110" height="40" as="geometry">
            <mxRectangle width="110" height="40" as="alternateBounds" />
          </mxGeometry>
        </mxCell>
        <mxCell id="NoP4yANCG9PIDfPH0jD4-361" value="" style="shape=partialRectangle;html=1;whiteSpace=wrap;connectable=0;strokeColor=inherit;overflow=hidden;fillColor=none;top=0;left=0;bottom=0;right=0;pointerEvents=1;strokeWidth=1;" parent="NoP4yANCG9PIDfPH0jD4-357" vertex="1">
          <mxGeometry x="320" width="110" height="40" as="geometry">
            <mxRectangle width="110" height="40" as="alternateBounds" />
          </mxGeometry>
        </mxCell>
        <mxCell id="NoP4yANCG9PIDfPH0jD4-362" value="" style="shape=partialRectangle;html=1;whiteSpace=wrap;connectable=0;strokeColor=inherit;overflow=hidden;fillColor=none;top=0;left=0;bottom=0;right=0;pointerEvents=1;strokeWidth=1;" parent="NoP4yANCG9PIDfPH0jD4-357" vertex="1">
          <mxGeometry x="430" width="100" height="40" as="geometry">
            <mxRectangle width="100" height="40" as="alternateBounds" />
          </mxGeometry>
        </mxCell>
        <mxCell id="NoP4yANCG9PIDfPH0jD4-363" value="" style="shape=partialRectangle;html=1;whiteSpace=wrap;connectable=0;strokeColor=inherit;overflow=hidden;fillColor=none;top=0;left=0;bottom=0;right=0;pointerEvents=1;strokeWidth=1;" parent="NoP4yANCG9PIDfPH0jD4-357" vertex="1">
          <mxGeometry x="530" width="110" height="40" as="geometry">
            <mxRectangle width="110" height="40" as="alternateBounds" />
          </mxGeometry>
        </mxCell>
        <mxCell id="NoP4yANCG9PIDfPH0jD4-364" style="shape=partialRectangle;html=1;whiteSpace=wrap;connectable=0;strokeColor=inherit;overflow=hidden;fillColor=none;top=0;left=0;bottom=0;right=0;pointerEvents=1;strokeWidth=1;" parent="NoP4yANCG9PIDfPH0jD4-357" vertex="1">
          <mxGeometry x="640" width="120" height="40" as="geometry">
            <mxRectangle width="120" height="40" as="alternateBounds" />
          </mxGeometry>
        </mxCell>
        <mxCell id="NoP4yANCG9PIDfPH0jD4-365" style="shape=partialRectangle;html=1;whiteSpace=wrap;connectable=0;strokeColor=inherit;overflow=hidden;fillColor=none;top=0;left=0;bottom=0;right=0;pointerEvents=1;strokeWidth=1;" parent="NoP4yANCG9PIDfPH0jD4-357" vertex="1">
          <mxGeometry x="760" width="95" height="40" as="geometry">
            <mxRectangle width="95" height="40" as="alternateBounds" />
          </mxGeometry>
        </mxCell>
        <mxCell id="NoP4yANCG9PIDfPH0jD4-366" style="shape=partialRectangle;html=1;whiteSpace=wrap;connectable=0;strokeColor=inherit;overflow=hidden;fillColor=none;top=0;left=0;bottom=0;right=0;pointerEvents=1;strokeWidth=1;" parent="NoP4yANCG9PIDfPH0jD4-357" vertex="1">
          <mxGeometry x="855" width="93" height="40" as="geometry">
            <mxRectangle width="93" height="40" as="alternateBounds" />
          </mxGeometry>
        </mxCell>
        <mxCell id="NoP4yANCG9PIDfPH0jD4-367" style="shape=partialRectangle;html=1;whiteSpace=wrap;connectable=0;strokeColor=inherit;overflow=hidden;fillColor=none;top=0;left=0;bottom=0;right=0;pointerEvents=1;strokeWidth=1;" parent="NoP4yANCG9PIDfPH0jD4-357" vertex="1">
          <mxGeometry x="948" width="92" height="40" as="geometry">
            <mxRectangle width="92" height="40" as="alternateBounds" />
          </mxGeometry>
        </mxCell>
        <mxCell id="NoP4yANCG9PIDfPH0jD4-368" value="" style="shape=tableRow;horizontal=0;startSize=0;swimlaneHead=0;swimlaneBody=0;strokeColor=inherit;top=0;left=0;bottom=0;right=0;collapsible=0;dropTarget=0;fillColor=none;points=[[0,0.5],[1,0.5]];portConstraint=eastwest;" parent="NoP4yANCG9PIDfPH0jD4-345" vertex="1">
          <mxGeometry y="70" width="1040" height="40" as="geometry" />
        </mxCell>
        <mxCell id="NoP4yANCG9PIDfPH0jD4-369" value="" style="shape=partialRectangle;html=1;whiteSpace=wrap;connectable=0;strokeColor=inherit;overflow=hidden;fillColor=none;top=0;left=0;bottom=0;right=0;pointerEvents=1;strokeWidth=1;" parent="NoP4yANCG9PIDfPH0jD4-368" vertex="1">
          <mxGeometry width="111" height="40" as="geometry">
            <mxRectangle width="111" height="40" as="alternateBounds" />
          </mxGeometry>
        </mxCell>
        <mxCell id="NoP4yANCG9PIDfPH0jD4-370" value="" style="shape=partialRectangle;html=1;whiteSpace=wrap;connectable=0;strokeColor=inherit;overflow=hidden;fillColor=none;top=0;left=0;bottom=0;right=0;pointerEvents=1;strokeWidth=1;" parent="NoP4yANCG9PIDfPH0jD4-368" vertex="1">
          <mxGeometry x="111" width="99" height="40" as="geometry">
            <mxRectangle width="99" height="40" as="alternateBounds" />
          </mxGeometry>
        </mxCell>
        <mxCell id="NoP4yANCG9PIDfPH0jD4-371" value="" style="shape=partialRectangle;html=1;whiteSpace=wrap;connectable=0;strokeColor=inherit;overflow=hidden;fillColor=none;top=0;left=0;bottom=0;right=0;pointerEvents=1;strokeWidth=1;" parent="NoP4yANCG9PIDfPH0jD4-368" vertex="1">
          <mxGeometry x="210" width="110" height="40" as="geometry">
            <mxRectangle width="110" height="40" as="alternateBounds" />
          </mxGeometry>
        </mxCell>
        <mxCell id="NoP4yANCG9PIDfPH0jD4-372" value="" style="shape=partialRectangle;html=1;whiteSpace=wrap;connectable=0;strokeColor=inherit;overflow=hidden;fillColor=none;top=0;left=0;bottom=0;right=0;pointerEvents=1;strokeWidth=1;" parent="NoP4yANCG9PIDfPH0jD4-368" vertex="1">
          <mxGeometry x="320" width="110" height="40" as="geometry">
            <mxRectangle width="110" height="40" as="alternateBounds" />
          </mxGeometry>
        </mxCell>
        <mxCell id="NoP4yANCG9PIDfPH0jD4-373" value="" style="shape=partialRectangle;html=1;whiteSpace=wrap;connectable=0;strokeColor=inherit;overflow=hidden;fillColor=none;top=0;left=0;bottom=0;right=0;pointerEvents=1;strokeWidth=1;" parent="NoP4yANCG9PIDfPH0jD4-368" vertex="1">
          <mxGeometry x="430" width="100" height="40" as="geometry">
            <mxRectangle width="100" height="40" as="alternateBounds" />
          </mxGeometry>
        </mxCell>
        <mxCell id="NoP4yANCG9PIDfPH0jD4-374" value="" style="shape=partialRectangle;html=1;whiteSpace=wrap;connectable=0;strokeColor=inherit;overflow=hidden;fillColor=none;top=0;left=0;bottom=0;right=0;pointerEvents=1;strokeWidth=1;" parent="NoP4yANCG9PIDfPH0jD4-368" vertex="1">
          <mxGeometry x="530" width="110" height="40" as="geometry">
            <mxRectangle width="110" height="40" as="alternateBounds" />
          </mxGeometry>
        </mxCell>
        <mxCell id="NoP4yANCG9PIDfPH0jD4-375" style="shape=partialRectangle;html=1;whiteSpace=wrap;connectable=0;strokeColor=inherit;overflow=hidden;fillColor=none;top=0;left=0;bottom=0;right=0;pointerEvents=1;strokeWidth=1;" parent="NoP4yANCG9PIDfPH0jD4-368" vertex="1">
          <mxGeometry x="640" width="120" height="40" as="geometry">
            <mxRectangle width="120" height="40" as="alternateBounds" />
          </mxGeometry>
        </mxCell>
        <mxCell id="NoP4yANCG9PIDfPH0jD4-376" style="shape=partialRectangle;html=1;whiteSpace=wrap;connectable=0;strokeColor=inherit;overflow=hidden;fillColor=none;top=0;left=0;bottom=0;right=0;pointerEvents=1;strokeWidth=1;" parent="NoP4yANCG9PIDfPH0jD4-368" vertex="1">
          <mxGeometry x="760" width="95" height="40" as="geometry">
            <mxRectangle width="95" height="40" as="alternateBounds" />
          </mxGeometry>
        </mxCell>
        <mxCell id="NoP4yANCG9PIDfPH0jD4-377" style="shape=partialRectangle;html=1;whiteSpace=wrap;connectable=0;strokeColor=inherit;overflow=hidden;fillColor=none;top=0;left=0;bottom=0;right=0;pointerEvents=1;strokeWidth=1;" parent="NoP4yANCG9PIDfPH0jD4-368" vertex="1">
          <mxGeometry x="855" width="93" height="40" as="geometry">
            <mxRectangle width="93" height="40" as="alternateBounds" />
          </mxGeometry>
        </mxCell>
        <mxCell id="NoP4yANCG9PIDfPH0jD4-378" style="shape=partialRectangle;html=1;whiteSpace=wrap;connectable=0;strokeColor=inherit;overflow=hidden;fillColor=none;top=0;left=0;bottom=0;right=0;pointerEvents=1;strokeWidth=1;" parent="NoP4yANCG9PIDfPH0jD4-368" vertex="1">
          <mxGeometry x="948" width="92" height="40" as="geometry">
            <mxRectangle width="92" height="40" as="alternateBounds" />
          </mxGeometry>
        </mxCell>
        <mxCell id="Foa9GCthax_WoGRG55Z5-2" style="edgeStyle=orthogonalEdgeStyle;rounded=0;orthogonalLoop=1;jettySize=auto;html=1;exitX=0.079;exitY=0.033;exitDx=0;exitDy=0;exitPerimeter=0;" edge="1" parent="1" source="NoP4yANCG9PIDfPH0jD4-220">
          <mxGeometry relative="1" as="geometry">
            <mxPoint x="-848" y="470" as="targetPoint" />
            <Array as="points">
              <mxPoint x="-460" y="320" />
              <mxPoint x="-848" y="320" />
            </Array>
          </mxGeometry>
        </mxCell>
        <mxCell id="Foa9GCthax_WoGRG55Z5-3" style="edgeStyle=orthogonalEdgeStyle;rounded=0;orthogonalLoop=1;jettySize=auto;html=1;exitX=0;exitY=0.5;exitDx=0;exitDy=0;entryX=0.954;entryY=0.005;entryDx=0;entryDy=0;entryPerimeter=0;" edge="1" parent="1" source="NoP4yANCG9PIDfPH0jD4-286" target="NoP4yANCG9PIDfPH0jD4-345">
          <mxGeometry relative="1" as="geometry" />
        </mxCell>
        <mxCell id="Foa9GCthax_WoGRG55Z5-4" style="edgeStyle=orthogonalEdgeStyle;rounded=0;orthogonalLoop=1;jettySize=auto;html=1;exitX=0;exitY=0.5;exitDx=0;exitDy=0;entryX=0.775;entryY=-0.027;entryDx=0;entryDy=0;entryPerimeter=0;" edge="1" parent="1" source="NoP4yANCG9PIDfPH0jD4-200" target="NoP4yANCG9PIDfPH0jD4-345">
          <mxGeometry relative="1" as="geometry" />
        </mxCell>
        <mxCell id="Foa9GCthax_WoGRG55Z5-5" style="edgeStyle=orthogonalEdgeStyle;rounded=0;orthogonalLoop=1;jettySize=auto;html=1;exitX=0;exitY=0.5;exitDx=0;exitDy=0;entryX=0.674;entryY=-0.006;entryDx=0;entryDy=0;entryPerimeter=0;" edge="1" parent="1" source="NoP4yANCG9PIDfPH0jD4-171" target="NoP4yANCG9PIDfPH0jD4-345">
          <mxGeometry relative="1" as="geometry">
            <Array as="points">
              <mxPoint x="-1920" y="390" />
              <mxPoint x="-1880" y="390" />
              <mxPoint x="-1880" y="430" />
              <mxPoint x="-1049" y="430" />
            </Array>
          </mxGeometry>
        </mxCell>
        <mxCell id="Foa9GCthax_WoGRG55Z5-7" style="edgeStyle=orthogonalEdgeStyle;rounded=0;orthogonalLoop=1;jettySize=auto;html=1;exitX=0;exitY=0.5;exitDx=0;exitDy=0;entryX=0.844;entryY=1.013;entryDx=0;entryDy=0;entryPerimeter=0;" edge="1" parent="1" source="NoP4yANCG9PIDfPH0jD4-260" target="NoP4yANCG9PIDfPH0jD4-274">
          <mxGeometry relative="1" as="geometry" />
        </mxCell>
        <mxCell id="Foa9GCthax_WoGRG55Z5-8" style="edgeStyle=orthogonalEdgeStyle;rounded=0;orthogonalLoop=1;jettySize=auto;html=1;exitX=0.25;exitY=0;exitDx=0;exitDy=0;entryX=0.138;entryY=-0.022;entryDx=0;entryDy=0;entryPerimeter=0;" edge="1" parent="1" source="NoP4yANCG9PIDfPH0jD4-267" target="NoP4yANCG9PIDfPH0jD4-346">
          <mxGeometry relative="1" as="geometry" />
        </mxCell>
        <mxCell id="Foa9GCthax_WoGRG55Z5-9" style="edgeStyle=orthogonalEdgeStyle;rounded=0;orthogonalLoop=1;jettySize=auto;html=1;exitX=0.25;exitY=0;exitDx=0;exitDy=0;entryX=0.557;entryY=0.999;entryDx=0;entryDy=0;entryPerimeter=0;" edge="1" parent="1" source="NoP4yANCG9PIDfPH0jD4-299" target="NoP4yANCG9PIDfPH0jD4-368">
          <mxGeometry relative="1" as="geometry">
            <Array as="points">
              <mxPoint x="-1700" y="660" />
              <mxPoint x="-1700" y="620" />
              <mxPoint x="-1171" y="620" />
            </Array>
          </mxGeometry>
        </mxCell>
      </root>
    </mxGraphModel>
  </diagram>
</mxfile>
